<svg id="Layer_1" data-name="Layer 1" xmlns="http://www.w3.org/2000/svg" xmlns:xlink="http://www.w3.org/1999/xlink" viewBox="0 0 555.24 219.95"><defs><style>.cls-1{fill:none;}.cls-2{fill:#231f20;}.cls-3{fill:#f27040;}.cls-4{clip-path:url(#clip-path);}.cls-5{fill:#fff;}.cls-6{fill:#fac2a5;}</style><clipPath id="clip-path"><path class="cls-1" d="M5.66,106.55c0,58.1.27,108,54.76,108.21,45.75.18,56.6-33.56,56.6-91.66S127.91,4,59.38,3.92h-.12C7.37,3.92,5.66,48.5,5.66,106.55"/></clipPath></defs><path class="cls-2" d="M189.09,76.3l-25,65.31h12l5.22-14.49H206.7l5.17,14.49h11.85l-25-65.31Zm-3.84,39.9,8.81-24.47,8.74,24.47Z"/><rect class="cls-2" x="233.26" y="76.3" width="12.55" height="65.31"/><path class="cls-2" d="M280.58,76.3l-25,65.31h12l5.22-14.49h25.38l5.17,14.49h11.85l-25-65.31Zm-3.84,39.9,8.81-24.47,8.74,24.47Z"/><polygon class="cls-2" points="313.35 87.95 331.29 87.95 331.29 141.61 344 141.61 344 87.95 361.95 87.95 361.95 76.3 313.35 76.3 313.35 87.95"/><path class="cls-2" d="M408.9,110.47a24.73,24.73,0,0,0-6.48-4,55,55,0,0,0-9.33-3,49,49,0,0,1-7.21-2.34,9.31,9.31,0,0,1-3.74-2.61A5.71,5.71,0,0,1,381,94.92a7.31,7.31,0,0,1,2.89-6.1,12.4,12.4,0,0,1,7.81-2.25,22.91,22.91,0,0,1,8.53,1.66,27.47,27.47,0,0,1,8,5l4-10.27a19.77,19.77,0,0,0-5.56-4,32.79,32.79,0,0,0-7.2-2.57,34.93,34.93,0,0,0-8-.92,25.44,25.44,0,0,0-11.95,2.67,20,20,0,0,0-8,7.29,19.47,19.47,0,0,0-2.85,10.41,20.65,20.65,0,0,0,1.12,7.11,13.58,13.58,0,0,0,3.58,5.36,22.76,22.76,0,0,0,6.4,4,54,54,0,0,0,9.49,3,51,51,0,0,1,7.09,2.2,9.79,9.79,0,0,1,3.86,2.57,5.44,5.44,0,0,1,1.2,3.57,6.43,6.43,0,0,1-2.93,5.6c-2,1.35-4.77,2-8.41,2a28.34,28.34,0,0,1-9.66-1.65,31.45,31.45,0,0,1-8.85-5l-4.1,10.27a25.25,25.25,0,0,0,6.27,4.09,35.07,35.07,0,0,0,7.77,2.56,41.18,41.18,0,0,0,8.49.88A30.56,30.56,0,0,0,402.9,140a18.43,18.43,0,0,0,8.13-6.88,19.39,19.39,0,0,0,2.81-10.6,18.17,18.17,0,0,0-1.2-6.83A14,14,0,0,0,408.9,110.47Z"/><rect class="cls-2" x="428.57" y="76.3" width="12.55" height="65.31"/><path class="cls-2" d="M500.83,115.7a14,14,0,0,0-3.75-5.23,24.83,24.83,0,0,0-6.47-4,54.86,54.86,0,0,0-9.34-3,48.43,48.43,0,0,1-7.2-2.34,9.31,9.31,0,0,1-3.74-2.61,5.71,5.71,0,0,1-1.13-3.58,7.32,7.32,0,0,1,2.9-6.1,12.38,12.38,0,0,1,7.8-2.25,22.87,22.87,0,0,1,8.53,1.66,27.64,27.64,0,0,1,8.05,5l4-10.27A19.57,19.57,0,0,0,495,79a32.79,32.79,0,0,0-7.2-2.57,35,35,0,0,0-8-.92,25.46,25.46,0,0,0-11.95,2.67,19.92,19.92,0,0,0-8,7.29A19.39,19.39,0,0,0,457,95.84,20.64,20.64,0,0,0,458.1,103a13.58,13.58,0,0,0,3.58,5.36,22.76,22.76,0,0,0,6.4,4,53.7,53.7,0,0,0,9.49,3,50.35,50.35,0,0,1,7.08,2.2,9.64,9.64,0,0,1,3.86,2.57,5.4,5.4,0,0,1,1.21,3.57,6.41,6.41,0,0,1-2.94,5.6c-1.95,1.35-4.76,2-8.4,2a28.34,28.34,0,0,1-9.66-1.65,31.18,31.18,0,0,1-8.85-5l-4.1,10.27A25.25,25.25,0,0,0,462,139a34.89,34.89,0,0,0,7.77,2.56,41.18,41.18,0,0,0,8.49.88A30.6,30.6,0,0,0,491.09,140a18.43,18.43,0,0,0,8.13-6.88,19.48,19.48,0,0,0,2.81-10.6A18.17,18.17,0,0,0,500.83,115.7Z"/><path class="cls-2" d="M41.65,167.83a2.17,2.17,0,0,1,2.66.56,1,1,0,0,1-.3,1.21c-.93.73-2.27.69-2.74-.08a1.15,1.15,0,0,1,.38-1.69"/><path class="cls-2" d="M83.78,169.3a2.19,2.19,0,0,1,2.72,0,1,1,0,0,1-.07,1.25c-.78.89-2.1,1.1-2.7.43a1.14,1.14,0,0,1,0-1.73"/><path class="cls-2" d="M48.84,169.41a2.16,2.16,0,0,1,2.38-1.31,1,1,0,0,1,.56,1.12c-.24,1.16-1.28,2-2.14,1.71a1.13,1.13,0,0,1-.8-1.52"/><path class="cls-2" d="M102.83,171.33a2.18,2.18,0,0,1-2.5-1.07,1,1,0,0,1,.54-1.13c1-.52,2.36-.22,2.66.63a1.13,1.13,0,0,1-.7,1.57"/><path class="cls-2" d="M60,168.51a2.72,2.72,0,0,1,1.38.65,1.19,1.19,0,0,1,.33,1.32.93.93,0,0,1-1,.76,8.87,8.87,0,0,1-1.18.13,1.45,1.45,0,0,1-1.39-1.79c.18-1,.73-1.29,1.85-1.07"/><path class="cls-2" d="M93.65,171.56a2.68,2.68,0,0,1-1.3-.77,1.18,1.18,0,0,1-.22-1.34.93.93,0,0,1,1.07-.66,7.82,7.82,0,0,1,1.19,0,1.45,1.45,0,0,1,1.21,1.92c-.28.95-.85,1.21-1.95.88"/><path class="cls-2" d="M68.66,168.81c1.22-.09,1.17.49,1.29,1.17a1.08,1.08,0,0,1-1,1.31,2.56,2.56,0,0,1-2.37-.56c-.26-.22-.49-.46-.36-.84a1.79,1.79,0,0,1,1.23-1s.82,0,1.21-.05"/><path class="cls-2" d="M110.51,170.83c-1.22,0-1.12-.58-1.18-1.26s.37-1.15,1.1-1.23a2.6,2.6,0,0,1,2.32.74c.23.25.44.5.28.88a1.79,1.79,0,0,1-1.31.93,11.56,11.56,0,0,0-1.21-.06"/><path class="cls-2" d="M33.14,170.05c-1.23,0-1.13-.58-1.19-1.26a1.08,1.08,0,0,1,1.1-1.24,2.61,2.61,0,0,1,2.32.75c.23.25.44.5.28.87a1.74,1.74,0,0,1-1.3.93s-.82,0-1.21,0"/><path class="cls-2" d="M77.74,168.58c.6-.15,1,.23,1.16.84a2.08,2.08,0,0,1-.61,2,.92.92,0,0,1-1.4.12c-.43-.35-1.1-.21-1.41-.89s-.29-.94.19-1.35a2.78,2.78,0,0,1,2.07-.71"/><path class="cls-2" d="M22.46,169.6c-.59-.2-.71-.74-.5-1.34a2,2,0,0,1,1.61-1.32.93.93,0,0,1,1.23.67c.17.54.8.79.68,1.53s-.28.94-.91,1a2.71,2.71,0,0,1-2.11-.55"/><path class="cls-3" d="M117,123.1c0,58.1-10.85,91.84-56.6,91.66C5.93,214.55,5.66,164.65,5.66,106.55S7.36,3.85,59.38,3.92C127.91,4,117,65,117,123.1"/><g class="cls-4"><path class="cls-5" d="M8.58,36.72c2.24,0,4.19-.6,6.41-.59.88,0,1.77,0,2.65,0a17.63,17.63,0,0,0,3-.63c1.7-.31,3.71.08,5.44,0a30.1,30.1,0,0,0,3.25-.64c1.06-.12,2.17.18,3.23.06s2.1-.58,3.21-.64c.9,0,1.82.13,2.72.05,1.44-.12,2.7-.63,4.17-.63a15.49,15.49,0,0,0,2.63-.12,69.14,69.14,0,0,1,12.47-1.05H81.28a43,43,0,0,1,5.44,0c.83.12,1.53.56,2.36.65a27.86,27.86,0,0,0,3,0,27.54,27.54,0,0,1,5.45.13,36.54,36.54,0,0,0,5.35.43c1.44.09,2.86.51,4.31.62.94.08,1.77.58,2.65.66s1.59-.71,2.45-.63a28.42,28.42,0,0,1,3,.7,9.64,9.64,0,0,1,2.42.76c1,.65.71,1.61.83,2.69s.9,1.77,0,2.34c-4.21,2.67-105,5.22-112.54,2.35-.93-.35.43-6.15,1.24-6.5,1-.43,2.1.57,2.95-.59"/><path class="cls-2" d="M6.69,54.85c-.11-4,3-1.39,5-.72C19.94,57,26.25,62.56,33,67.55c8.88,6.56,15.93,15.17,24,22.7,3.48,3.27,6.63,4.09,10.7,1.51A44.19,44.19,0,0,0,79.19,81c5.41-7.23,12.32-12.77,19.13-18.43,5.24-4.36,13.82-14.38,16-12.86,1.62,1.39.68,2.72-1.48,4.29-12.09,8.76-23.11,18.72-32.07,30.81A96.83,96.83,0,0,1,73.83,93c-3.5,3.77-5.83,7.64-5.71,13.27.16,7.43,2.19,13.91,7.08,19.26,5.78,6.31,12,12.21,18,18.3s13.57,9.6,20.65,13.9c3.51,2.13,6.19,9.34-1,9.5,0,0-5.31.14-13.4.18-8.48,0-4.71-.19-13.18.25-4,.2-43.19-2.44-55.14-2.11-1.21,0-3,.73-3.53-.67-.68-1.77,1.42-2.33,2.45-3C40.48,155.19,50.51,148,60.3,140.5c7.58-5.84,12.53-5.1,20.54,2,9.35,8.34,15.35,12.69,26.67,18.07.85.4,4.42,3.2,5.28,1.67s-3.27-3.34-4.4-3.9c-9.13-4.56-13.24-7.62-21.13-14.09-3.09-2.53-5.84-5.44-9.47-7.36-9.2-4.87-12.62-4.74-20.75,1.75-9,7.15-18.69,13.26-28,19.89-4.41,3.14-8.31,7-13.45,9.11-.87.35-1.9,1.13-1.66,2.24s1.55,1.16,2.48,1.38c7.05,1.68,14.28,1,21.41,1.47,6.14.4,12.27.49,18.42,1.07,6.45.61,13.1-.75,19.74-.54a289.18,289.18,0,0,0,35.44-.9c1.71-.15,3-.33,2.66,2.36a47.89,47.89,0,0,1-10.11,23.71c-.41.54-6.63,6.87-11.21,9.26-12.69,6.61-26.06,7.55-40.07,6.5-5.79-.44-22.74-6.2-23.79-6.56A19.18,19.18,0,0,1,24,204.54c-.61-.72-6.47-3.08-11.83-21.8a37,37,0,0,1-2.26-8.22c-1-4-.23-6.64,2.95-8.83,6.11-4.21,11.71-9.19,18-13.12a106.08,106.08,0,0,0,28-24.94c5.42-7,2.8-23.45-4.78-32.61-9-10.94-18.69-21.19-30.45-29.24-3.89-2.66-7.59-5.67-11.94-7.61-1.57-.69-5.14-1.56-5-3.32"/><path class="cls-2" d="M110.7,35.18c-.35,1.23-9.33-.92-19.66-1.55-13.94-.86-30.55-.05-32.82,0-18.12.34,7.68.16-36.19,1-1.33,0-11.72,2.5-11.72,2.5a27.38,27.38,0,0,1,9.54-20.61c1.73-1.7,8.8-6.37,9.56-6.78C34.55,7,40.37,6.3,46,5.42,58,3.53,66.75,3.18,78.91,5.78c10.9,2.32,19,7.68,23.88,14.37,5,6.85,9.52,9.37,7.91,15"/><path class="cls-2" d="M55.46,126.43c-11.15,10.37-23,19.83-34.5,29.8-2.26,2-4.86,3.5-7.26,5.3-1.13.85-2.42,2.5-3.63,1.37a3.66,3.66,0,0,1-.16-4.78c4.32-4.91,8.3-10,13.33-14.43,8.74-7.62,16.8-16.08,21.1-27.28,1.08-2.83.1-5.48-1-7.91C40.59,102,37.08,95.57,32,90.94,24,83.71,17.81,74.49,8,69.31,6.63,68.59,5.86,62.13,6.9,61s1.86-.22,2.65.29C25.56,71.6,40,83.65,51.6,98.9c4.17,5.52,12.6,19.4,3.86,27.53"/><path class="cls-2" d="M116.42,152.05c-.39,2.5-1.87,2.29-3.67,1-9-6.42-17-14-24.83-21.64a84.09,84.09,0,0,1-13.38-16.07c-3.54-5.8-2.38-11.25.87-16a245.81,245.81,0,0,1,18-23.52c5.42-6.22,11.75-11.65,17.81-17.29,1-.9,2.37-3.31,3.63-1.75,1.39,1.73,2,4.76.16,6.74A161.34,161.34,0,0,0,90.2,100.2C87.83,105,89,110,90.69,114.45,95.37,126.93,103.45,137,114,145.12c.3.22,3.12,2.15,2.39,6.93"/><path class="cls-2" d="M98.79,51c1-.22,3-.06,3.68,1.57.71,1.79-.53,2.93-1.72,4-7.32,6.85-15.33,13-22,20.47-3.54,4-6.61,8.32-11,11.42-2.63,1.84-4.76,1.79-7.33-.34-9-7.43-16.43-16.45-25.82-23.38Q29,60.75,23.26,56.91c-1.17-.79-2.15-1.57-1.88-3,.33-1.8,71.13-1.41,77.41-2.84"/><path class="cls-2" d="M103.76,82c-.06-3.14,4.24-7.51,7.31-7.06a3.66,3.66,0,0,1,3.14,3.48c.27,4.4-2.67,8.47-6,8.29-2.88-.15-4.36-1.8-4.41-4.71"/><path class="cls-2" d="M25,95.57c.43,3.44-1.29,4.32-4.31,3.24-2.86-1-5.57-2.27-6-5.85a4.73,4.73,0,0,1,1.71-4.52c1.63-1.32,3.4-.59,4.69.52,2,1.7,4.54,3.22,3.92,6.61"/><path class="cls-2" d="M117.35,102.81c-.19,1.41.83,3.4-1.47,3.92s-4.32-.35-5-2.36-1.37-4.48.16-6.5c1.16-1.54,2.37-4,4.63-3.19,1.93.7,1.66,2.65,1.65,3.49"/><path class="cls-5" d="M82.41,50.89a2.18,2.18,0,0,1-2.68-.42A1,1,0,0,1,80,49.24c.9-.77,2.24-.79,2.74,0a1.13,1.13,0,0,1-.3,1.69"/><path class="cls-5" d="M40.26,51.42a2.18,2.18,0,0,1-2.72.08,1,1,0,0,1,0-1.25c.74-.92,2.05-1.19,2.68-.55a1.13,1.13,0,0,1,0,1.72"/><path class="cls-5" d="M75.16,49.66a2.16,2.16,0,0,1-2.32,1.42A1,1,0,0,1,72.23,50c.18-1.17,1.19-2.05,2.06-1.81a1.13,1.13,0,0,1,.87,1.48"/><path class="cls-5" d="M21.14,50.29a2.18,2.18,0,0,1,2.54,1,1,1,0,0,1-.48,1.15c-1,.58-2.35.33-2.69-.5a1.13,1.13,0,0,1,.63-1.61"/><path class="cls-5" d="M64,51.08a2.59,2.59,0,0,1-1.4-.57,1.18,1.18,0,0,1-.4-1.3.94.94,0,0,1,1-.81,8.66,8.66,0,0,1,1.17-.19,1.44,1.44,0,0,1,1.47,1.72c-.14,1-.67,1.33-1.8,1.15"/><path class="cls-5" d="M30.29,49.63a2.69,2.69,0,0,1,1.34.71,1.18,1.18,0,0,1,.28,1.33.93.93,0,0,1-1,.71,6.61,6.61,0,0,1-1.19.08,1.44,1.44,0,0,1-1.3-1.85c.23-1,.79-1.26,1.9-1"/><path class="cls-5" d="M55.38,51.2c-1.21.15-1.19-.44-1.33-1.11A1.07,1.07,0,0,1,55,48.73a2.6,2.6,0,0,1,2.4.45c.26.21.5.43.39.83a1.8,1.8,0,0,1-1.18,1.09s-.81,0-1.21.1"/><path class="cls-5" d="M13.49,51.16c1.22-.06,1.15.53,1.24,1.2a1.08,1.08,0,0,1-1,1.29A2.57,2.57,0,0,1,11.34,53c-.25-.23-.47-.47-.33-.86a1.82,1.82,0,0,1,1.26-1s.82,0,1.22,0"/><path class="cls-5" d="M90.81,48.28c1.23-.06,1.15.53,1.25,1.21s-.32,1.16-1,1.28a2.58,2.58,0,0,1-2.35-.64c-.24-.23-.46-.47-.32-.86a1.8,1.8,0,0,1,1.26-1,11.5,11.5,0,0,0,1.21,0"/><path class="cls-5" d="M100.57,47.84c1.23-.06,1.15.52,1.25,1.2a1.07,1.07,0,0,1-1,1.28,2.55,2.55,0,0,1-2.34-.63c-.25-.24-.47-.48-.33-.86a1.8,1.8,0,0,1,1.26-1h1.21"/><path class="cls-5" d="M46.33,51.86c-.59.18-1-.18-1.2-.79a2.06,2.06,0,0,1,.52-2A.91.91,0,0,1,47,48.87c.46.33,1.12.16,1.46.83s.33.92-.13,1.35a2.77,2.77,0,0,1-2,.81"/><path class="cls-5" d="M110.51,47.05c.6.18.74.71.56,1.32a2.06,2.06,0,0,1-1.54,1.4.93.93,0,0,1-1.26-.62c-.19-.52-.84-.75-.75-1.5s.23-.95.85-1a2.79,2.79,0,0,1,2.14.45"/><path class="cls-3" d="M44.89,161.57c-.62.1-1.94,0-2.3-.92s.4-1.53,1.19-2.09c4.83-3.43,10.08-6.47,14.54-10.25,2.36-2,4.42-4.22,7.33-5.75a3.86,3.86,0,0,1,4.65.36c5.52,4.14,10.06,9.1,15.86,13q3.42,2.29,7,4.47c.73.44,1.33.88,1.12,1.64-.25.94-45.32-1-49.35-.44"/><path class="cls-3" d="M88.23,57c.71-.13,2.21,0,2.67,1s-.4,1.88-1.27,2.58c-5.36,4.36-11.23,8.25-16.15,13-2.6,2.51-4.85,5.29-8.1,7.26a4.22,4.22,0,0,1-5.33-.24c-6.46-4.76-11.86-10.53-18.65-15q-4-2.63-8.13-5.09c-.85-.5-1.55-1-1.35-1.93.25-1.15,51.73-.74,56.31-1.64"/><path class="cls-5" d="M88.7,198.16c-.91.63-3,.21-3.48-.78a1.28,1.28,0,0,1,.41-1.59c1.24-.93,3-.85,3.6.17a1.48,1.48,0,0,1-.53,2.2"/><path class="cls-5" d="M53.07,203.29c-.78.78-2.93.76-3.57-.12a1.29,1.29,0,0,1,.11-1.64c1-1.15,2.79-1.4,3.57-.51a1.5,1.5,0,0,1-.11,2.27"/><path class="cls-5" d="M74.56,202c-.82.75-3,.63-3.56-.29a1.28,1.28,0,0,1,.19-1.63c1.1-1.1,2.85-1.26,3.59-.34a1.5,1.5,0,0,1-.22,2.26"/><path class="cls-5" d="M25.72,193.59c-.72.66-2.63.56-3.15-.25a1.13,1.13,0,0,1,.16-1.45c1-1,2.53-1.12,3.18-.3a1.32,1.32,0,0,1-.19,2"/><path class="cls-5" d="M92.08,193.43c.9-.65,3-.28,3.5.69a1.27,1.27,0,0,1-.37,1.6c-1.21,1-3,.94-3.6-.07a1.49,1.49,0,0,1,.47-2.22"/><path class="cls-5" d="M65.85,202.64a3.44,3.44,0,0,1-1.79-.88,1.55,1.55,0,0,1-.42-1.73,1.23,1.23,0,0,1,1.32-1c.52,0,1-.25,1.56-.16a1.92,1.92,0,0,1,1.79,2.39c-.26,1.28-1,1.68-2.46,1.36"/><path class="cls-5" d="M58.26,200A3.58,3.58,0,0,1,60,201a1.58,1.58,0,0,1,.25,1.77,1.22,1.22,0,0,1-1.41.85,10.26,10.26,0,0,1-1.57,0,1.9,1.9,0,0,1-1.55-2.54c.38-1.25,1.14-1.58,2.57-1.13"/><path class="cls-5" d="M99.3,195.7c-1.6.1-1.52-.67-1.66-1.56A1.42,1.42,0,0,1,99,192.43a3.38,3.38,0,0,1,3.1.79c.33.3.63.61.45,1.12a2.37,2.37,0,0,1-1.63,1.33s-1.08,0-1.6,0"/><path class="cls-5" d="M46.08,199.3c1.6,0,1.46.78,1.53,1.66s-.51,1.49-1.47,1.58a3.42,3.42,0,0,1-3-1c-.31-.33-.58-.66-.36-1.14a2.35,2.35,0,0,1,1.73-1.19s1.07.09,1.6.1"/><path class="cls-5" d="M32.71,194.65c1.57.35,1.28,1.06,1.17,1.94a1.42,1.42,0,0,1-1.77,1.25,3.44,3.44,0,0,1-2.76-1.61c-.23-.38-.43-.76-.12-1.19a2.38,2.38,0,0,1,1.94-.81s1,.3,1.54.42"/><path class="cls-5" d="M79.33,200.86c-.8.19-1.31-.31-1.51-1.13a2.68,2.68,0,0,1,.84-2.6,1.21,1.21,0,0,1,1.83-.13c.57.47,1.45.3,1.85,1.21.33.74.36,1.23-.29,1.76a3.58,3.58,0,0,1-2.72.89"/><path class="cls-5" d="M39.53,196.92c.77.29.92,1,.63,1.78A2.69,2.69,0,0,1,38,200.4a1.21,1.21,0,0,1-1.6-.91c-.21-.7-1-1.06-.86-2,.13-.8.38-1.23,1.21-1.31a3.59,3.59,0,0,1,2.76.76"/><path class="cls-5" d="M78.88,192.45c-.91.63-3,.21-3.48-.78a1.28,1.28,0,0,1,.42-1.59c1.23-.93,3-.86,3.6.17a1.49,1.49,0,0,1-.54,2.2"/><path class="cls-5" d="M34.92,192.13c-.78.78-2.93.76-3.56-.12a1.27,1.27,0,0,1,.11-1.64c1-1.15,2.79-1.4,3.56-.5a1.49,1.49,0,0,1-.11,2.26"/><path class="cls-5" d="M73,193.43c-1,.39-3-.52-3.2-1.59a1.28,1.28,0,0,1,.78-1.45c1.42-.61,3.12-.11,3.45,1a1.5,1.5,0,0,1-1,2"/><path class="cls-5" d="M102.92,188c0-1.1,1.45-2.66,2.53-2.52a1.27,1.27,0,0,1,1.12,1.2c.13,1.54-.88,3-2.07,3a1.5,1.5,0,0,1-1.58-1.63"/><path class="cls-5" d="M27.22,187.86c1-.38,3,.56,3.18,1.63a1.26,1.26,0,0,1-.8,1.43c-1.43.6-3.12.08-3.44-1.06a1.49,1.49,0,0,1,1.06-2"/><path class="cls-5" d="M64.18,193.54a3.46,3.46,0,0,1-1.79-.87,1.56,1.56,0,0,1-.42-1.74,1.23,1.23,0,0,1,1.33-1c.51,0,1-.25,1.55-.15a1.9,1.9,0,0,1,1.79,2.38c-.26,1.28-1,1.68-2.46,1.36"/><path class="cls-5" d="M44.88,189.91a3.47,3.47,0,0,1,1.7,1,1.56,1.56,0,0,1,.26,1.77,1.25,1.25,0,0,1-1.42.85c-.51-.07-1,.15-1.56,0A1.91,1.91,0,0,1,42.3,191c.39-1.25,1.14-1.58,2.58-1.12"/><path class="cls-5" d="M50.87,193.48c-1.61.1-1.53-.67-1.67-1.56a1.42,1.42,0,0,1,1.35-1.71,3.41,3.41,0,0,1,3.1.78c.33.31.63.62.45,1.13a2.39,2.39,0,0,1-1.64,1.33s-1.07,0-1.59,0"/><path class="cls-5" d="M97.76,190.86c-1.6.1-1.52-.67-1.66-1.56a1.41,1.41,0,0,1,1.34-1.71,3.41,3.41,0,0,1,3.1.78c.33.31.63.62.45,1.13a2.39,2.39,0,0,1-1.64,1.33,15.8,15.8,0,0,0-1.59,0"/><path class="cls-5" d="M20.28,187.88c-.42-1.55.35-1.63,1.19-1.94a1.43,1.43,0,0,1,2,1,3.42,3.42,0,0,1-.16,3.2c-.23.38-.48.73-1,.66a2.39,2.39,0,0,1-1.63-1.34s-.21-1.05-.34-1.56"/><path class="cls-5" d="M85.14,189.48c1.44,0,1.33.75,1.42,1.66a1.4,1.4,0,0,1-1.27,1.69,2.79,2.79,0,0,1-2.73-.94,1.11,1.11,0,0,1-.36-1.17,2.18,2.18,0,0,1,1.52-1.28s1,.05,1.42,0"/><path class="cls-5" d="M39.55,190.26C41,190.2,40.9,191,41,191.9a1.39,1.39,0,0,1-1.22,1.71,2.79,2.79,0,0,1-2.76-.87,1.1,1.1,0,0,1-.38-1.16,2.16,2.16,0,0,1,1.48-1.32s1,0,1.43,0"/><path class="cls-5" d="M57,193.84c-.79.19-1.3-.32-1.51-1.14a2.7,2.7,0,0,1,.84-2.6,1.22,1.22,0,0,1,1.84-.13c.57.47,1.45.31,1.85,1.21.32.74.36,1.24-.29,1.76a3.65,3.65,0,0,1-2.73.9"/><path class="cls-5" d="M91.24,191.79c-.8.19-1.31-.32-1.51-1.13a2.7,2.7,0,0,1,.84-2.61,1.21,1.21,0,0,1,1.83-.12c.57.47,1.45.3,1.85,1.2.33.74.36,1.24-.29,1.76a3.58,3.58,0,0,1-2.72.9"/><path class="cls-5" d="M94.37,200.89c-.91.63-3,.21-3.48-.78a1.28,1.28,0,0,1,.41-1.59c1.24-.93,3-.85,3.6.17a1.49,1.49,0,0,1-.53,2.2"/><path class="cls-5" d="M47.58,207.77c-.78.78-2.93.76-3.57-.12a1.29,1.29,0,0,1,.11-1.64c1.05-1.15,2.79-1.4,3.57-.51a1.5,1.5,0,0,1-.11,2.27"/><path class="cls-5" d="M63.66,206.33c1-.53,3,.07,3.4,1.1A1.28,1.28,0,0,1,66.5,209c-1.32.81-3.07.57-3.57-.5a1.5,1.5,0,0,1,.73-2.15"/><path class="cls-5" d="M52.63,208.91c-1,.54-3,0-3.41-1.07a1.28,1.28,0,0,1,.55-1.55c1.32-.83,3.06-.6,3.57.47a1.49,1.49,0,0,1-.71,2.15"/><path class="cls-5" d="M27.92,198.59c1-.54,3,.07,3.39,1.09a1.28,1.28,0,0,1-.55,1.55c-1.32.82-3.07.58-3.57-.5a1.49,1.49,0,0,1,.73-2.14"/><path class="cls-5" d="M34.21,200.44c1.09.19,2.32,2,2,3a1.3,1.3,0,0,1-1.41.86c-1.54-.2-2.75-1.48-2.46-2.63a1.48,1.48,0,0,1,1.91-1.21"/><path class="cls-5" d="M79.32,207a3.49,3.49,0,0,1-1.8-.87,1.58,1.58,0,0,1-.42-1.74,1.24,1.24,0,0,1,1.33-1,11.15,11.15,0,0,1,1.56-.15,1.9,1.9,0,0,1,1.78,2.38c-.26,1.28-1,1.68-2.45,1.36"/><path class="cls-5" d="M40.45,203.5a3.47,3.47,0,0,1,1.7,1,1.56,1.56,0,0,1,.26,1.77,1.25,1.25,0,0,1-1.42.85c-.5-.07-1,.15-1.56,0a1.9,1.9,0,0,1-1.55-2.54c.38-1.25,1.13-1.58,2.57-1.12"/><path class="cls-5" d="M70.83,208.37c-1.6.1-1.52-.67-1.66-1.56a1.42,1.42,0,0,1,1.34-1.71,3.43,3.43,0,0,1,3.11.78c.32.31.62.62.45,1.13a2.39,2.39,0,0,1-1.64,1.33s-1.07,0-1.6,0"/><path class="cls-5" d="M85.64,204.51c-1.56.39-1.62-.38-1.92-1.23a1.42,1.42,0,0,1,1-1.93,3.41,3.41,0,0,1,3.19.21c.38.24.73.49.65,1a2.37,2.37,0,0,1-1.37,1.6s-1,.2-1.56.33"/><path class="cls-5" d="M25.19,194.87c1.6,0,1.46.79,1.53,1.68a1.42,1.42,0,0,1-1.47,1.6,3.4,3.4,0,0,1-3-1c-.31-.33-.58-.67-.36-1.16a2.33,2.33,0,0,1,1.73-1.19s1.07.08,1.6.09"/><path class="cls-5" d="M56.68,210.19c-.79.19-1.3-.32-1.51-1.13a2.72,2.72,0,0,1,.84-2.61,1.21,1.21,0,0,1,1.84-.12c.57.46,1.45.3,1.85,1.2.32.74.36,1.24-.29,1.76a3.61,3.61,0,0,1-2.73.9"/><path class="cls-5" d="M33.36,19c.92-.62,3-.2,3.49.78a1.29,1.29,0,0,1-.42,1.6c-1.24.93-3,.85-3.6-.18a1.5,1.5,0,0,1,.53-2.2"/><path class="cls-5" d="M69,13.91c.78-.79,2.93-.77,3.56.11a1.28,1.28,0,0,1-.11,1.65c-1,1.14-2.79,1.39-3.56.5A1.49,1.49,0,0,1,69,13.91"/><path class="cls-5" d="M47.51,15.22c.81-.74,3-.62,3.56.29a1.29,1.29,0,0,1-.19,1.64c-1.1,1.09-2.86,1.26-3.59.33a1.49,1.49,0,0,1,.22-2.26"/><path class="cls-5" d="M96.35,23.6a2.53,2.53,0,0,1,3.15.26,1.14,1.14,0,0,1-.17,1.45c-1,1-2.53,1.12-3.18.29a1.33,1.33,0,0,1,.2-2"/><path class="cls-5" d="M30,23.76c-.9.65-3,.29-3.51-.69a1.29,1.29,0,0,1,.37-1.6c1.22-1,3-.93,3.61.07A1.5,1.5,0,0,1,30,23.76"/><path class="cls-5" d="M56.22,14.56a3.46,3.46,0,0,1,1.79.87,1.56,1.56,0,0,1,.42,1.74,1.24,1.24,0,0,1-1.33,1,11,11,0,0,1-1.55.15,1.9,1.9,0,0,1-1.79-2.38c.26-1.28,1-1.68,2.46-1.36"/><path class="cls-5" d="M63.8,17.24a3.47,3.47,0,0,1-1.7-1,1.54,1.54,0,0,1-.25-1.77,1.23,1.23,0,0,1,1.41-.85c.51.07,1-.15,1.56,0a1.91,1.91,0,0,1,1.56,2.54c-.38,1.25-1.14,1.58-2.58,1.12"/><path class="cls-5" d="M22.77,21.49c1.6-.1,1.52.67,1.66,1.56a1.42,1.42,0,0,1-1.34,1.71A3.43,3.43,0,0,1,20,24c-.32-.31-.62-.62-.45-1.12a2.34,2.34,0,0,1,1.64-1.33s1.07,0,1.6,0"/><path class="cls-5" d="M76,17.9c-1.61,0-1.47-.78-1.53-1.67s.51-1.49,1.47-1.58a3.42,3.42,0,0,1,3,1c.3.33.58.66.36,1.15A2.35,2.35,0,0,1,77.58,18S76.51,17.9,76,17.9"/><path class="cls-5" d="M89.35,22.55c-1.57-.35-1.27-1.06-1.16-1.94A1.4,1.4,0,0,1,90,19.36,3.38,3.38,0,0,1,92.71,21c.23.39.44.76.12,1.2a2.36,2.36,0,0,1-1.94.8s-1-.3-1.54-.41"/><path class="cls-5" d="M42.74,16.33c.79-.19,1.31.32,1.51,1.13a2.72,2.72,0,0,1-.84,2.61,1.22,1.22,0,0,1-1.84.13c-.56-.47-1.44-.31-1.84-1.21-.33-.74-.36-1.24.28-1.76a3.61,3.61,0,0,1,2.73-.9"/><path class="cls-5" d="M82.53,20.27c-.76-.28-.91-1-.63-1.78a2.71,2.71,0,0,1,2.15-1.7,1.21,1.21,0,0,1,1.59.91c.22.71,1,1.06.87,2-.14.8-.38,1.23-1.21,1.31a3.63,3.63,0,0,1-2.77-.77"/><path class="cls-5" d="M43.18,24.74c.92-.62,3-.2,3.49.78a1.31,1.31,0,0,1-.42,1.6c-1.24.93-3,.85-3.6-.17a1.5,1.5,0,0,1,.53-2.21"/><path class="cls-5" d="M87.14,25.07c.78-.79,2.94-.77,3.57.11a1.28,1.28,0,0,1-.11,1.65c-1,1.14-2.79,1.39-3.57.5a1.49,1.49,0,0,1,.11-2.26"/><path class="cls-5" d="M49.1,23.77c1-.39,3,.52,3.2,1.58a1.29,1.29,0,0,1-.78,1.45c-1.43.61-3.12.12-3.46-1a1.49,1.49,0,0,1,1-2"/><path class="cls-5" d="M19.14,29.24c0,1.11-1.44,2.67-2.52,2.53a1.28,1.28,0,0,1-1.12-1.2c-.13-1.55.88-3,2.06-2.95a1.48,1.48,0,0,1,1.58,1.62"/><path class="cls-5" d="M94.84,29.33c-1,.38-3-.55-3.17-1.62a1.28,1.28,0,0,1,.79-1.44c1.44-.59,3.12-.08,3.45,1.06a1.49,1.49,0,0,1-1.07,2"/><path class="cls-5" d="M57.88,23.65a3.51,3.51,0,0,1,1.8.88,1.57,1.57,0,0,1,.42,1.73,1.24,1.24,0,0,1-1.33,1,9.69,9.69,0,0,1-1.56.16A1.91,1.91,0,0,1,55.43,25c.26-1.28,1-1.68,2.45-1.36"/><path class="cls-5" d="M77.19,27.28a3.47,3.47,0,0,1-1.71-1,1.57,1.57,0,0,1-.25-1.77,1.23,1.23,0,0,1,1.42-.84,9,9,0,0,1,1.56,0,1.9,1.9,0,0,1,1.55,2.54c-.38,1.25-1.14,1.58-2.57,1.12"/><path class="cls-5" d="M71.2,23.72c1.61-.11,1.53.66,1.66,1.55A1.41,1.41,0,0,1,71.52,27a3.38,3.38,0,0,1-3.1-.78c-.33-.31-.63-.61-.45-1.12a2.34,2.34,0,0,1,1.64-1.33s1.07,0,1.59,0"/><path class="cls-5" d="M24.31,26.34c1.6-.1,1.52.67,1.66,1.55a1.41,1.41,0,0,1-1.34,1.71,3.38,3.38,0,0,1-3.11-.78c-.32-.3-.62-.61-.44-1.12a2.37,2.37,0,0,1,1.63-1.33s1.08,0,1.6,0"/><path class="cls-5" d="M101.79,29.31c.42,1.56-.35,1.63-1.2,1.94a1.41,1.41,0,0,1-1.94-1,3.4,3.4,0,0,1,.15-3.19c.24-.38.48-.74,1-.66a2.35,2.35,0,0,1,1.62,1.34s.21,1,.35,1.55"/><path class="cls-5" d="M36.93,27.72c-1.44,0-1.34-.75-1.42-1.67a1.39,1.39,0,0,1,1.26-1.68,2.78,2.78,0,0,1,2.74.93,1.1,1.1,0,0,1,.35,1.17,2.17,2.17,0,0,1-1.51,1.29s-1-.05-1.42,0"/><path class="cls-5" d="M82.52,26.93c-1.44.06-1.35-.72-1.46-1.63a1.41,1.41,0,0,1,1.23-1.72,2.77,2.77,0,0,1,2.75.88,1.11,1.11,0,0,1,.39,1.16,2.22,2.22,0,0,1-1.49,1.32s-1,0-1.42,0"/><path class="cls-5" d="M65.05,23.36c.8-.19,1.31.31,1.51,1.13a2.68,2.68,0,0,1-.84,2.6,1.2,1.2,0,0,1-1.83.13c-.57-.47-1.45-.3-1.85-1.2-.33-.75-.36-1.24.29-1.76a3.58,3.58,0,0,1,2.72-.9"/><path class="cls-5" d="M30.83,25.41c.79-.19,1.31.31,1.51,1.13a2.7,2.7,0,0,1-.84,2.6,1.22,1.22,0,0,1-1.84.13c-.56-.47-1.44-.31-1.84-1.21-.33-.74-.36-1.24.28-1.76a3.6,3.6,0,0,1,2.73-.89"/><path class="cls-5" d="M27.69,16.3c.92-.62,3-.2,3.49.78a1.29,1.29,0,0,1-.42,1.6c-1.24.93-3,.85-3.6-.18a1.5,1.5,0,0,1,.53-2.2"/><path class="cls-5" d="M74.49,9.43c.78-.79,2.93-.77,3.56.12a1.27,1.27,0,0,1-.11,1.64c-1,1.14-2.79,1.39-3.57.5a1.49,1.49,0,0,1,.12-2.26"/><path class="cls-5" d="M58.41,10.86c-1,.54-3-.07-3.4-1.09a1.27,1.27,0,0,1,.56-1.55c1.32-.82,3.06-.58,3.57.49a1.5,1.5,0,0,1-.73,2.15"/><path class="cls-5" d="M69.44,8.28c1-.54,3,.05,3.4,1.08a1.28,1.28,0,0,1-.54,1.55c-1.32.82-3.07.59-3.58-.48a1.5,1.5,0,0,1,.72-2.15"/><path class="cls-5" d="M94.15,18.61c-1,.54-3-.07-3.4-1.1A1.28,1.28,0,0,1,91.31,16c1.32-.81,3.07-.57,3.57.5a1.5,1.5,0,0,1-.73,2.15"/><path class="cls-5" d="M87.85,16.76c-1.09-.19-2.31-2-1.95-3a1.27,1.27,0,0,1,1.41-.85c1.53.19,2.74,1.48,2.46,2.63a1.5,1.5,0,0,1-1.92,1.21"/><path class="cls-5" d="M42.75,10.17a3.44,3.44,0,0,1,1.79.88A1.55,1.55,0,0,1,45,12.78a1.23,1.23,0,0,1-1.32,1c-.52,0-1,.25-1.56.16a1.92,1.92,0,0,1-1.79-2.39c.26-1.28,1-1.68,2.46-1.36"/><path class="cls-5" d="M81.62,13.7a3.58,3.58,0,0,1-1.71-1,1.58,1.58,0,0,1-.25-1.77A1.22,1.22,0,0,1,81.07,10a10.26,10.26,0,0,1,1.57,0,1.9,1.9,0,0,1,1.55,2.54c-.38,1.25-1.14,1.58-2.57,1.13"/><path class="cls-5" d="M51.23,8.83c1.61-.11,1.53.66,1.66,1.55a1.41,1.41,0,0,1-1.34,1.71,3.38,3.38,0,0,1-3.1-.78c-.33-.31-.63-.61-.45-1.12a2.34,2.34,0,0,1,1.64-1.33s1.07,0,1.59,0"/><path class="cls-5" d="M36.43,12.69c1.56-.4,1.62.38,1.91,1.22a1.41,1.41,0,0,1-1,1.93,3.4,3.4,0,0,1-3.2-.2c-.37-.24-.72-.49-.64-1A2.34,2.34,0,0,1,34.86,13s1.06-.19,1.57-.32"/><path class="cls-5" d="M96.88,22.32c-1.61,0-1.47-.78-1.53-1.68A1.41,1.41,0,0,1,96.82,19a3.38,3.38,0,0,1,3,1c.3.33.58.66.36,1.15a2.38,2.38,0,0,1-1.74,1.2s-1.07-.09-1.59-.1"/><path class="cls-5" d="M65.38,7c.8-.19,1.31.31,1.51,1.13a2.68,2.68,0,0,1-.84,2.6,1.21,1.21,0,0,1-1.83.13c-.57-.47-1.45-.31-1.85-1.21C62,8.92,62,8.42,62.66,7.9A3.56,3.56,0,0,1,65.38,7"/><path class="cls-6" d="M120.88,34.43a11.83,11.83,0,0,1-4.95,1.35,84,84,0,0,1-9.15-.14l-9-.43c-3.53-.15-7.06-.48-10.59-.55-5.72-.11-11.43-.38-17.15-.55-2.7-.09-5.41.17-8.12.26-4.06.12-8.12.51-12.16.56-5.42.06-10.82.42-16.22.44-3.16,0-6.3.92-9.42.64-3.84-.32-7.59.67-11.33,1-1.37.13-2.76.33-4.17.45a18.78,18.78,0,0,1-2.12.08c-.71,0-1.4-.07-2.09-.12-.22,0-.44,0-.67,0-.68,0-1.49,0-1.62-.63s.81-.8,1.4-.91A11.43,11.43,0,0,1,6,35.56a33.9,33.9,0,0,0,10.56-1.8,6,6,0,0,1,2.25-.07,42.59,42.59,0,0,0,9.5-.39c2.48-.34,5,0,7.47-.47,2.87-.49,5.73-.07,8.58-.17a19.34,19.34,0,0,0,4.49-.39,2.48,2.48,0,0,1,.9-.08c3.87.47,7.69-.32,11.54-.36,7.11-.09,14.21.22,21.3.29,4.16,0,8.3.3,12.42.63,3.86.3,7.75.47,11.62.67s7.71.75,11.63.8"/><path class="cls-6" d="M-.91,43.47a11.83,11.83,0,0,1,5-1.35,84,84,0,0,1,9.15.14l9,.43c3.52.15,7.06.48,10.59.55,5.72.11,11.43.38,17.14.55,2.71.09,5.42-.18,8.13-.26,4.06-.12,8.12-.51,12.15-.56,5.43-.06,10.83-.42,16.23-.44,3.16,0,6.3-.92,9.42-.64,3.84.32,7.58-.67,11.32-1,1.38-.13,2.77-.33,4.18-.45a18.69,18.69,0,0,1,2.12-.08c.71,0,1.4.07,2.08.12l.67,0c.69,0,1.49,0,1.63.63s-.81.8-1.4.91a11.43,11.43,0,0,1-2.53.29,33.9,33.9,0,0,0-10.56,1.8,6,6,0,0,1-2.25.07,42.59,42.59,0,0,0-9.5.39c-2.48.34-5,0-7.48.47-2.87.49-5.72.07-8.57.17a19.25,19.25,0,0,0-4.49.39,2.5,2.5,0,0,1-.9.08c-3.88-.47-7.69.32-11.54.36-7.11.09-14.21-.22-21.31-.29-4.15,0-8.29-.3-12.41-.63-3.87-.31-7.75-.47-11.62-.68s-7.71-.74-11.63-.79"/><path class="cls-5" d="M7.82,170.05a12.12,12.12,0,0,1,2.25.17c.48.08,1,.19,1.46.23s.77,0,1.14,0,.84.12,1.28.14a9.55,9.55,0,0,1,1.31,0,6.05,6.05,0,0,0,1.21.1c.41,0,.76.15,1.17.13a3.41,3.41,0,0,1,.78.11c.32.06.64,0,1,.05a22.48,22.48,0,0,0,3.66.37c.77,0,1.56,0,2.34,0,.39,0,.77.13,1.17.15a9.33,9.33,0,0,1,1.18,0c1.39.19,2.84.17,4.23.46a18.36,18.36,0,0,0,2.86.29c.35,0,.67.13,1,.14s.73,0,1.09,0,.92.14,1.4.13,1,.15,1.47.14a10.8,10.8,0,0,1,2.05,0,14,14,0,0,0,1.59.09c.53,0,1,.14,1.56.14,1.52,0,3,0,4.57,0,.56,0,1.13,0,1.7,0,.41,0,.8.14,1.22.13,1.61,0,3.2.27,4.81.26.93,0,1.83.14,2.77.13.4,0,.75.12,1.14.14s1.07-.05,1.6,0c.76.1,1.5.07,2.24.21a3.92,3.92,0,0,0,1.53-.08,6.73,6.73,0,0,1,1.34.11h1.85a7.22,7.22,0,0,0,1,0,7.63,7.63,0,0,1,1.07-.13,4.51,4.51,0,0,0,1.15-.17c.27-.06.85-.24,1.12-.07a1,1,0,0,1-.66.1,8.09,8.09,0,0,1,1.1,0c.36.06.7.14,1.06.21a6.85,6.85,0,0,0,1.28,0,6.85,6.85,0,0,1,.81.13c.34,0,.64-.14,1-.14h3.64a32,32,0,0,0,4.91-.16,38.51,38.51,0,0,1,6.45-.24,9.41,9.41,0,0,0,1-.13,11.42,11.42,0,0,1,1.17,0h2.39c.35,0,.69,0,1,0,.57,0,1.12-.18,1.68-.14a10,10,0,0,0,1.08.14,10.41,10.41,0,0,0,1.37,0c.79-.1,1.57-.19,2.37-.23a4.18,4.18,0,0,0,.51-.1c.27-.05.53,0,.8-.06a11,11,0,0,1,2-.1h1.89a10.79,10.79,0,0,1,2,0,2.16,2.16,0,0,1,1.14.38,6.84,6.84,0,0,1,.62.8,7.06,7.06,0,0,1,.72,1,2.09,2.09,0,0,1-.51,2.29,6.74,6.74,0,0,1-3.52,1.78,12.07,12.07,0,0,1-1.3.28c-.37,0-.71.21-1.08.26a10.21,10.21,0,0,0-1.87.53,3.31,3.31,0,0,1-.77.17c-.8.11-1.58.21-2.38.36-.63.12-1.27.13-1.9.25a15.27,15.27,0,0,1-1.53.27c-1,.11-2.07.23-3.09.27-1.27,0-2.51.25-3.78.25-.9,0-1.77-.14-2.68-.13a20.86,20.86,0,0,1-2.74,0,26.83,26.83,0,0,0-3.36-.1H70.55c-2.54,0-5.06-.13-7.6-.13-1.25,0-2.48,0-3.72.1s-2.78-.11-4.14.06a18.17,18.17,0,0,1-2.33.1c-.71,0-1.38.12-2.07.14s-1.3-.07-1.94-.11c-.82,0-1.65,0-2.47,0-1.44,0-2.87-.14-4.3-.13s-3.12.09-4.65,0c-2.36-.19-4.72-.23-7.09-.23-1.82,0-3.61-.13-5.43-.13-.87,0-1.74,0-2.62,0s-1.56-.14-2.35-.13c-.44,0-.88,0-1.31,0s-.94.14-1.41.14a5.69,5.69,0,0,1-1.17-.16c-.84-.16-1.67-.25-2.52-.4a11.27,11.27,0,0,1-1.82-.36,4.71,4.71,0,0,1-.75-.25,3,3,0,0,1-.44-.43c-.57-.57-1.05-1.2-1.58-1.81a6.49,6.49,0,0,1-.69-.8,6,6,0,0,1-.46-1,15.53,15.53,0,0,1-.53-1.8,3.81,3.81,0,0,1,.11-1.64,12.16,12.16,0,0,1,.25-1.2,5,5,0,0,1,.28-.63c.09-.21.11-.49.29-.65"/><path class="cls-6" d="M116.94,180a33.82,33.82,0,0,0-10.57,1.72,6.11,6.11,0,0,1-2.26,0,42.56,42.56,0,0,0-9.5.32c-2.48.32-5,0-7.48.41-2.87.47-5.72,0-8.57.1a19.37,19.37,0,0,0-4.5.37,2.48,2.48,0,0,1-.9.06c-3.87-.5-7.69.27-11.54.28-7.11,0-14.21-.33-21.3-.45-4.16-.07-8.3-.36-12.41-.72-3.86-.34-7.75-.53-11.62-.77s-7.7-.8-11.62-.88a6.87,6.87,0,0,1-2.62-.23,12,12,0,0,1,5-1.31,81.21,81.21,0,0,1,9.15.21l9,.49c3.53.19,7.06.54,10.59.63,5.72.16,11.43.47,17.14.69,2.71.1,5.42-.14,8.13-.2,4.06-.09,8.12-.45,12.16-.47,5.42,0,10.83-.34,16.23-.32,3.16,0,6.31-.87,9.42-.57,3.84.35,7.59-.61,11.33-.91,1.38-.12,2.77-.31,4.18-.42.7,0,1.42-.09,2.13-.07"/><path class="cls-6" d="M116.93,173.17a34.07,34.07,0,0,0-10.61,1.46,6.08,6.08,0,0,1-2.25,0,42.6,42.6,0,0,0-9.51.08c-2.49.26-5-.11-7.49.23-2.88.39-5.72-.12-8.57-.12a19.44,19.44,0,0,0-4.51.26,2.47,2.47,0,0,1-.9,0c-3.85-.59-7.69.07-11.54,0-7.11-.15-14.2-.69-21.28-1-4.16-.17-8.29-.56-12.39-1-3.86-.44-7.73-.72-11.6-1.06s-7.68-1-11.6-1.17a6.78,6.78,0,0,1-2.6-.29,11.79,11.79,0,0,1,5-1.19,82.48,82.48,0,0,1,9.14.43l9,.72c3.53.27,7.05.71,10.57.9,5.72.29,11.42.74,17.12,1.1,2.7.18,5.42,0,8.13,0,4.06,0,8.13-.25,12.17-.17,5.42.12,10.83-.07,16.23.09,3.16.09,6.33-.72,9.44-.35,3.82.45,7.6-.41,11.35-.63,1.38-.08,2.77-.24,4.18-.31.7,0,1.42-.05,2.13,0"/><path class="cls-5" d="M41.65,167.83a2.17,2.17,0,0,1,2.66.56,1,1,0,0,1-.3,1.21c-.93.73-2.27.69-2.74-.08a1.15,1.15,0,0,1,.38-1.69"/><path class="cls-5" d="M83.78,169.3a2.19,2.19,0,0,1,2.72,0,1,1,0,0,1-.07,1.25c-.78.89-2.1,1.1-2.7.43a1.14,1.14,0,0,1,0-1.73"/><path class="cls-5" d="M48.84,169.41a2.16,2.16,0,0,1,2.38-1.31,1,1,0,0,1,.56,1.12c-.24,1.16-1.28,2-2.14,1.71a1.13,1.13,0,0,1-.8-1.52"/><path class="cls-5" d="M102.83,171.33a2.18,2.18,0,0,1-2.5-1.07,1,1,0,0,1,.54-1.13c1-.52,2.36-.22,2.66.63a1.13,1.13,0,0,1-.7,1.57"/><path class="cls-5" d="M60,168.51a2.72,2.72,0,0,1,1.38.65,1.19,1.19,0,0,1,.33,1.32.93.93,0,0,1-1,.76,8.87,8.87,0,0,1-1.18.13,1.45,1.45,0,0,1-1.39-1.79c.18-1,.73-1.29,1.85-1.07"/><path class="cls-5" d="M93.65,171.56a2.68,2.68,0,0,1-1.3-.77,1.18,1.18,0,0,1-.22-1.34.93.93,0,0,1,1.07-.66,7.82,7.82,0,0,1,1.19,0,1.45,1.45,0,0,1,1.21,1.92c-.28.95-.85,1.21-1.95.88"/><path class="cls-5" d="M68.66,168.81c1.22-.09,1.17.49,1.29,1.17a1.08,1.08,0,0,1-1,1.31,2.56,2.56,0,0,1-2.37-.56c-.26-.22-.49-.46-.36-.84a1.79,1.79,0,0,1,1.23-1s.82,0,1.21-.05"/><path class="cls-5" d="M110.51,170.83c-1.22,0-1.12-.58-1.18-1.26s.37-1.15,1.1-1.23a2.6,2.6,0,0,1,2.32.74c.23.25.44.5.28.88a1.79,1.79,0,0,1-1.31.93,11.56,11.56,0,0,0-1.21-.06"/><path class="cls-5" d="M33.14,170.05c-1.23,0-1.13-.58-1.19-1.26a1.08,1.08,0,0,1,1.1-1.24,2.61,2.61,0,0,1,2.32.75c.23.25.44.5.28.87a1.74,1.74,0,0,1-1.3.93s-.82,0-1.21,0"/><path class="cls-5" d="M77.74,168.58c.6-.15,1,.23,1.16.84a2.08,2.08,0,0,1-.61,2,.92.92,0,0,1-1.4.12c-.43-.35-1.1-.21-1.41-.89s-.29-.94.19-1.35a2.78,2.78,0,0,1,2.07-.71"/><path class="cls-5" d="M22.46,169.6c-.59-.2-.71-.74-.5-1.34a2,2,0,0,1,1.61-1.32.93.93,0,0,1,1.23.67c.17.54.8.79.68,1.53s-.28.94-.91,1a2.71,2.71,0,0,1-2.11-.55"/><path class="cls-6" d="M116.74,179.19c-.17.26-.28.57-.47.81a1.11,1.11,0,0,1-1.54.39,14.27,14.27,0,0,1-2.32-1.31,18.07,18.07,0,0,0-3.29-2.33c-.29.31-.55.61-.84.88-1,.93-2,1.89-3,2.75a1.19,1.19,0,0,1-1.83-.09c-1.35-1.26-2.7-2.49-4-3.76a7.77,7.77,0,0,1-1.22-1.41.63.63,0,0,1,.63-1,2.71,2.71,0,0,1,1.22.58c1.14.93,2.22,1.91,3.35,2.85a10.66,10.66,0,0,0,1,.71,3.61,3.61,0,0,0,2.09-1.65,14.06,14.06,0,0,0,.83-1.33c.74-1.12,1.31-1.25,2.5-.54a11.88,11.88,0,0,1,1,.73l3.65,2.68a7.51,7.51,0,0,0,1.88-2.23,16.92,16.92,0,0,1,1.93-2.45"/><path class="cls-6" d="M77,176.26a39.38,39.38,0,0,0-3.45,4.24c-.68,1.15-1.38,1.25-2.39.32-1.46-1.33-2.88-2.71-4.37-4.12a26.16,26.16,0,0,0-2.86,3.59,7,7,0,0,1-.53.77,1.11,1.11,0,0,1-1.55.3,14,14,0,0,1-2.22-1.47,18.94,18.94,0,0,0-3.13-2.54c-.31.28-.59.57-.9.83-1.05.86-2.08,1.75-3.18,2.54a1.19,1.19,0,0,1-1.82-.2c-1.26-1.33-2.53-2.66-3.77-4a8.91,8.91,0,0,1-1.14-1.47.64.64,0,0,1,.7-1,2.64,2.64,0,0,1,1.19.65c1.07,1,2.1,2,3.16,3,.3.29.64.53.94.77a3.6,3.6,0,0,0,2.2-1.51c.35-.39.6-.86.92-1.27.81-1.07,1.38-1.17,2.53-.38a10.43,10.43,0,0,1,1,.8l3.47,2.92a7.73,7.73,0,0,0,2-2.11,18.4,18.4,0,0,1,2.1-2.31c1-.92,1.79-.75,2.54.44a8.59,8.59,0,0,0,3.52,3.35c.79-.22,1.18-1,1.69-1.51.88-1,1.69-2,2.53-3a1.08,1.08,0,0,1,1.75-.13,4.23,4.23,0,0,1,.62.88,13.67,13.67,0,0,0,4.15,4.22,5.26,5.26,0,0,0,1.53-1.72c.75-1.06,1.53-2.11,2.37-3.1s1.39-.84,2.07,0c.54.7,1,1.47,1.49,2.19a7.07,7.07,0,0,0,2.26,2.3c.51-.67,1-1.29,1.42-1.9.62-.85,1.19-1.72,1.86-2.52a2.4,2.4,0,0,1,1.14-.72.9.9,0,0,1,1.13.61c.18.45.3.91-.17,1.27A14.2,14.2,0,0,0,94,180.52c-.62,1.24-1.32,1.39-2.32.41s-2.08-2.21-3.08-3.33c-.35-.39-.64-.81-1-1.28A6.24,6.24,0,0,0,86,178.13,32.68,32.68,0,0,1,84,180.85c-.85,1-1.35,1-2.27.15-1.32-1.21-2.57-2.47-3.83-3.73-.25-.25-.48-.54-.89-1"/><path class="cls-6" d="M24.33,175.21a36.81,36.81,0,0,0-3.55,4.15c-.7,1.14-1.39,1.23-2.37.29l-4.33-4.16a24.85,24.85,0,0,0-2.84,3.61,8.56,8.56,0,0,1-.51.77,1.1,1.1,0,0,1-1.54.31A13.94,13.94,0,0,1,7,178.76a17.46,17.46,0,0,0-3.19-2.45c-.3.3-.56.6-.86.86-1,.91-2,1.84-3,2.69a1.16,1.16,0,0,1-1.8-.11c-1.32-1.25-2.67-2.49-4-3.73a9.06,9.06,0,0,1-1.26-1.37.63.63,0,0,1,.62-1,2.49,2.49,0,0,1,1.25.56c1.16.9,2.26,1.89,3.38,2.83.31.26.67.48,1,.71a3.67,3.67,0,0,0,2.12-1.63c.33-.4.56-.87.86-1.3.76-1.1,1.35-1.23,2.53-.48.35.23.67.51,1,.77,1.18.94,2.36,1.89,3.52,2.84a8,8,0,0,0,2-2.12,15.88,15.88,0,0,1,2.09-2.32c1.06-.92,1.82-.75,2.56.44a9,9,0,0,0,3.49,3.39c.8-.21,1.2-.93,1.72-1.48.9-.95,1.74-1.95,2.62-2.92a1.09,1.09,0,0,1,1.76-.08,4.28,4.28,0,0,1,.6.9,14.16,14.16,0,0,0,4,4.37,5.43,5.43,0,0,0,1.6-1.67c.8-1,1.62-2,2.51-3s1.43-.77,2.07.13c.51.72.91,1.52,1.39,2.26a7.14,7.14,0,0,0,2.14,2.41l1.52-1.82c.66-.81,1.28-1.65,2-2.42a2.53,2.53,0,0,1,1.19-.65.92.92,0,0,1,1.1.68c.15.46.24.92-.25,1.26a13.91,13.91,0,0,0-4,4.92c-.68,1.2-1.38,1.31-2.33.28s-2-2.3-2.91-3.48c-.32-.4-.59-.84-.93-1.32a6.22,6.22,0,0,0-1.63,1.74c-.71.9-1.41,1.8-2.2,2.63s-1.38.93-2.26,0c-1.26-1.24-2.47-2.56-3.69-3.85-.25-.26-.46-.56-.86-1"/><path class="cls-6" d="M-18.57,41.4c1.44-1.88,3-3.34,4.09-5.25.8-1.43,1.61-1.56,2.8-.42,1.71,1.64,3.38,3.32,5.12,5.05a33.38,33.38,0,0,0,3.37-4.5c.22-.3.37-.68.61-1a1.28,1.28,0,0,1,1.83-.39A14.44,14.44,0,0,1,1.86,36.7a21.41,21.41,0,0,0,3.69,3.12c.36-.35.68-.71,1-1C7.82,37.72,9,36.6,10.31,35.61a1.34,1.34,0,0,1,2.13.24l4.48,4.88a10.77,10.77,0,0,1,1.36,1.8c.38.68-.06,1.37-.8,1.23A3,3,0,0,1,16.07,43c-1.28-1.21-2.5-2.49-3.76-3.73-.36-.35-.76-.64-1.12-.93a4.26,4.26,0,0,0-2.57,1.89c-.4.48-.69,1.06-1.06,1.58-.94,1.33-1.62,1.45-3,.49-.41-.29-.76-.65-1.14-1q-2-1.8-4.08-3.56A9.78,9.78,0,0,0-3,40.37a20.72,20.72,0,0,1-2.46,2.9c-1.23,1.15-2.11.95-3-.5a10.33,10.33,0,0,0-4.13-4.11c-.94.28-1.39,1.18-2,1.88-1,1.2-2,2.47-3,3.7"/><path class="cls-6" d="M43.35,41.84c1.45-1.86,3-3.32,4.08-5.22.8-1.42,1.6-1.55,2.79-.4l5.16,5.05a30.38,30.38,0,0,0,3.28-4.51,9.26,9.26,0,0,1,.59-1,1.25,1.25,0,0,1,1.8-.41,15.79,15.79,0,0,1,2.64,1.73,20.84,20.84,0,0,0,3.79,3c.34-.37.65-.75,1-1.08,1.18-1.12,2.32-2.29,3.55-3.34a1.33,1.33,0,0,1,2.12.12l4.74,4.62a11,11,0,0,1,1.49,1.7.78.78,0,0,1-.73,1.28,2.9,2.9,0,0,1-1.47-.69c-1.37-1.12-2.66-2.33-4-3.5-.37-.33-.8-.6-1.16-.87a4.26,4.26,0,0,0-2.48,2c-.38.49-.65,1.09-1,1.62-.89,1.37-1.57,1.51-3,.61a13.14,13.14,0,0,1-1.18-.94l-4.19-3.47a9.72,9.72,0,0,0-2.31,2.66,19.93,19.93,0,0,1-2.41,2.91c-1.23,1.16-2.12,1-3-.49a10.66,10.66,0,0,0-4.17-4.12c-.93.27-1.39,1.18-2,1.87-1,1.19-2,2.45-3,3.67a1.25,1.25,0,0,1-2.07.15,6.09,6.09,0,0,1-.73-1.11,16.87,16.87,0,0,0-4.8-5.29,6.71,6.71,0,0,0-1.83,2.09C34,41.81,33,43.09,32,44.29c-.89,1-1.68,1-2.44-.12-.62-.88-1.11-1.85-1.69-2.76a8.56,8.56,0,0,0-2.57-2.93c-.61.81-1.18,1.55-1.75,2.29-.76,1-1.47,2.06-2.29,3a2.84,2.84,0,0,1-1.39.83,1.06,1.06,0,0,1-1.3-.82c-.2-.57-.3-1.13.27-1.56a17.11,17.11,0,0,0,4.64-6.16c.78-1.5,1.6-1.65,2.73-.4s2.34,2.81,3.49,4.24c.39.48.72,1,1.13,1.61a7.53,7.53,0,0,0,1.87-2.19c.81-1.13,1.62-2.27,2.53-3.31s1.6-1.18,2.66-.13c1.51,1.52,3,3.11,4.42,4.68.3.32.55.68,1,1.26"/><path class="cls-6" d="M118.48,40c-1.18,1.23-2.1,1.06-3.07-.35a10.69,10.69,0,0,0-4.35-3.93c-.92.33-1.33,1.25-1.89,2-1,1.25-1.8,2.58-2.65,3.88a1.21,1.21,0,0,1-2,.33,5.47,5.47,0,0,1-.82-1,16.2,16.2,0,0,0-5.33-4.75,6.6,6.6,0,0,0-1.59,2.29c-.76,1.38-1.55,2.76-2.43,4.07-.76,1.13-1.55,1.17-2.45.16-.71-.8-1.31-1.71-2-2.55a8.82,8.82,0,0,0-2.86-2.65c-.53.87-1,1.66-1.51,2.45-.66,1.09-1.28,2.21-2,3.23a2.81,2.81,0,0,1-1.35.94,1.09,1.09,0,0,1-1.39-.71c-.23-.55-.38-1.11.16-1.58A15.85,15.85,0,0,0,85,35.25c.63-1.57,1.4-1.8,2.64-.68s2.61,2.55,3.91,3.84c.44.44.83.93,1.31,1.47a7.38,7.38,0,0,0,1.6-2.39c.68-1.21,1.35-2.44,2.14-3.57s1.46-1.36,2.64-.43c1.68,1.34,3.29,2.77,4.91,4.18.33.29.62.62,1.14,1.16,1.25-2,2.73-3.56,3.7-5.52.73-1.47,1.57-1.64,2.81-.56,1.81,1.57,3.54,3.19,5.4,4.82"/><path class="cls-2" d="M41,115a12.32,12.32,0,0,1-1.54,6.9,5.54,5.54,0,0,1-5.64,2.88c-2.29-.19-3.94-1.17-4.46-3.76-.36-1.78-1.68-3.26-1.81-5.24-.32-4.86,2.16-8,6.73-8.11s6.6,2,6.72,7.33"/><path class="cls-2" d="M104.77,108.25c.74,2.59-.75,4.39-3.25,5.21-3.14,1-5.91-.15-8.26-2.31-1.94-1.78-2.27-3.82-.73-6.06,1.36-2,.69-4.87,3.43-6.35,2.25-1.22,3.79-1.42,5.53.62a12.47,12.47,0,0,1,3.28,8.89"/><path class="cls-2" d="M6.13,114c-.19-4.35,1.89-4.09,4.3-4.41,2.63-.34,4.15,1.16,4.55,3.73.48,3.11,0,6-2.29,8.35-.85.87-1.7,1.66-3.07,1.15-.73-.28-3.27-2-3.5-4.51,0,0,.07-2.9,0-4.31"/><path class="cls-2" d="M26.69,136.33a4.9,4.9,0,0,1-4.88,5.22c-3.14.14-4.95-2.1-5.11-6.22-.13-3.62,2.76-4,5.13-4.46,2.85-.56,4.7,1.75,4.86,5.46"/><path class="cls-2" d="M114.56,124.6c0,4.13-1.66,7-4,6.71-2.54-.29-3.8-2.33-4.4-4.54-.41-1.5,3.51-5.91,4.93-5.79,2.34.18,3.91,1.2,3.51,3.62"/></g><path class="cls-5" d="M47.82,67.38c-.41-.23-.48-.46-.2-.83a1.72,1.72,0,0,1,.4-.36.68.68,0,0,1,1,.16.72.72,0,0,1-.13,1,1.06,1.06,0,0,1-1.06,0"/><path class="cls-5" d="M51.71,69.77c-.14,0-.34.2-.49.17a1,1,0,0,1-.8-.53.5.5,0,0,1,.15-.63l.31-.22a.6.6,0,0,1,.77,0,.66.66,0,0,1,.26.75,4.67,4.67,0,0,1-.2.5"/><path class="cls-5" d="M57.47,74.88c-.06-.06-.15-.13-.22-.21a.83.83,0,0,1-.22-.81.87.87,0,0,1,.65-.49.63.63,0,0,1,.81.72c-.09.45-.37.63-1,.79"/><path class="cls-5" d="M45.15,64.59a.78.78,0,0,1-1,.21.92.92,0,0,1-.17-1,.91.91,0,0,1,1.17-.06.54.54,0,0,1,0,.86"/><path class="cls-5" d="M59.38,75.76a2.48,2.48,0,0,1,.2-.23.7.7,0,0,1,.93,0,.72.72,0,0,1-.13.92,1.17,1.17,0,0,1-.36.16c-.2.07-.41.14-.61-.06a.65.65,0,0,1-.08-.74c0-.06.09-.12.05-.06"/><path class="cls-5" d="M55.32,71.78a.69.69,0,0,1-.86.33.93.93,0,0,1-.29-.9.75.75,0,0,1,1-.21.52.52,0,0,1,.13.78"/><path class="cls-5" d="M37,60.33c-.39-.11-.61-.28-.64-.52s.12-.41.57-.48l.19,0c.49,0,.77.18.77.47a.63.63,0,0,1-.64.58,1.38,1.38,0,0,1-.25,0"/><path class="cls-5" d="M42.2,62.55c-.25.46-.56.61-.84.5a.63.63,0,0,1-.33-.67c0-.29.24-.38.48-.41s.52-.14.67.09,0,.41,0,.49"/><path class="cls-5" d="M72.42,72.81c-.33.32-.54.34-.86,0a1.36,1.36,0,0,1-.26-.49.71.71,0,0,1,.39-.9,1,1,0,0,1,.91.35.86.86,0,0,1-.18,1"/><path class="cls-5" d="M75.37,69.26c0,.15.15.37.1.51a1.49,1.49,0,0,1-.24.43.86.86,0,0,1-.46.27.5.5,0,0,1-.59-.27c-.06-.11-.1-.23-.15-.34a.57.57,0,0,1,.09-.73.64.64,0,0,1,.77-.13,5,5,0,0,1,.48.26"/><path class="cls-5" d="M81.66,65.12l-.11,0-.16.07c-.75.27-1.17-.25-1-.89a.63.63,0,0,1,1-.47c.4.24.42.61.33,1.25"/><path class="cls-5" d="M69.41,75.07a.69.69,0,0,1-.07,1.05.75.75,0,0,1-1-.26.94.94,0,0,1,.28-1c.24-.17.52-.1.77.22"/><path class="cls-5" d="M83.23,63.29,83,63.08a.63.63,0,0,1,.11-.92.65.65,0,0,1,.81.43A1.23,1.23,0,0,1,84,63a1.45,1.45,0,0,1,0,.29c0,.07,0,.12,0,.15a.76.76,0,0,1-.64-.07.5.5,0,1,0-.07-.05"/><path class="cls-5" d="M78.06,66.07a.71.71,0,0,1,.09.9.86.86,0,0,1-.45.18.72.72,0,0,1-.49-.11.65.65,0,0,1-.19-.47.56.56,0,0,1,0-.28.77.77,0,0,1,.19-.29.51.51,0,0,1,.8.07"/><path class="cls-5" d="M61.31,76.47c-.33-.24-.42-.52-.31-.73s.31-.28.68-.19l.15,0c.37.11.55.33.47.59a.61.61,0,0,1-.75.41,1.42,1.42,0,0,1-.24-.11"/><path class="cls-5" d="M66.46,76.35c.1.52,0,.82-.26,1a.63.63,0,0,1-.73-.12.5.5,0,0,1-.06-.63,1.51,1.51,0,0,1,.2-.35.53.53,0,0,1,.14-.12A.63.63,0,0,1,66,76c.25,0,.38.26.45.32"/><path class="cls-5" d="M73.08,59.62c.36,0,.49.14.46.6a2.29,2.29,0,0,1-.11.52c-.12.39-.31.52-.58.41a.87.87,0,0,1-.37-.88.75.75,0,0,1,.6-.65"/><path class="cls-5" d="M69.71,60c.05-.12.09-.37.2-.43a.6.6,0,0,1,.74,0,.59.59,0,0,1,.17.61c0,.12-.07.24-.1.35-.08.26-.2.46-.44.44s-.37-.22-.45-.47-.07-.29-.12-.52"/><path class="cls-5" d="M64.09,59.22l.21.07a.88.88,0,0,1,.25,1.34c-.26.33-.64.24-.79-.21a1.12,1.12,0,0,1,.33-1.2"/><path class="cls-5" d="M75.93,60.35c0-.46.21-.84.49-.84s.53.4.52.73a.83.83,0,0,1-.62.73c-.24,0-.37-.22-.39-.62"/><path class="cls-5" d="M62.37,59.76a2.38,2.38,0,0,1,0,.3c0,.35-.22.69-.45.67s-.47-.41-.46-.74a1.51,1.51,0,0,1,.06-.36c0-.19.11-.39.31-.4a.59.59,0,0,1,.49.45c0,.07,0,.15,0,.08"/><path class="cls-5" d="M66.65,60.41c0-.38.17-.72.41-.73s.52.4.52.67A.64.64,0,0,1,67,61c-.21,0-.35-.24-.38-.6"/><path class="cls-5" d="M82.64,59.49a.47.47,0,0,1,.48.43.53.53,0,0,1-.36.55l-.11.06c-.29.11-.47,0-.53-.25a.61.61,0,0,1,.52-.79"/><path class="cls-5" d="M78.59,60.45c-.07-.52,0-.82.2-.91a.48.48,0,0,1,.55.24.61.61,0,0,1,0,.62c-.09.22-.2.48-.46.41s-.28-.3-.33-.36"/><path class="cls-5" d="M51.51,60.47c.35,0,.48.14.44.6a2.18,2.18,0,0,1-.11.52c-.14.39-.37.52-.64.4a.9.9,0,0,1-.33-.91.77.77,0,0,1,.64-.61"/><path class="cls-5" d="M48.11,60.66c.06-.12.1-.37.22-.43a.62.62,0,0,1,.77.07.59.59,0,0,1,.11.62,2,2,0,0,1-.13.34c-.09.25-.22.44-.45.4s-.31-.23-.39-.48-.07-.29-.13-.52"/><path class="cls-5" d="M42.58,59.28a.79.79,0,0,1,.23.09A.88.88,0,0,1,43,60.71c-.3.32-.61.21-.78-.23a1,1,0,0,1,.37-1.2"/><path class="cls-5" d="M54.28,61.34c0-.45.3-.81.56-.78s.51.42.49.75a.79.79,0,0,1-.69.69c-.27,0-.41-.26-.36-.66"/><path class="cls-5" d="M41.16,59.58c-.06.19-.07.24-.09.29-.16.32-.5.52-.67.45a1.06,1.06,0,0,1-.42-.78.87.87,0,0,1,.16-.37.56.56,0,0,1,.66-.29.53.53,0,0,1,.39.63c0,.07,0,.14,0,.07"/><path class="cls-5" d="M45.09,60.59c0-.38.23-.71.48-.69s.5.47.42.74-.3.6-.59.57-.31-.26-.31-.62"/><path class="cls-5" d="M61,60.62a.48.48,0,0,1,.57.32.48.48,0,0,1-.24.61l-.11.08c-.3.17-.55.11-.64-.16a.69.69,0,0,1,.25-.78,1.22,1.22,0,0,1,.17-.07"/><path class="cls-5" d="M56.89,61.62c0-.53.15-.8.36-.85s.38.11.49.34a.54.54,0,0,1-.07.63c-.13.19-.37.42-.57.3s-.18-.35-.21-.42"/><path class="cls-5" d="M60.84,160.3c-.52,0-.7-.15-.65-.61a1.61,1.61,0,0,1,.17-.51.71.71,0,0,1,.91-.41.77.77,0,0,1,.49.9,1,1,0,0,1-.92.63"/><path class="cls-5" d="M65.76,159.75c-.08.13-.12.38-.26.46a1.18,1.18,0,0,1-1.08.14.44.44,0,0,1-.26-.59l.12-.36c.09-.26.19-.48.54-.52a.69.69,0,0,1,.74.37,2.86,2.86,0,0,1,.2.5"/><path class="cls-5" d="M73.84,161.14l-.31-.09a.73.73,0,0,1-.23-1.35.72.72,0,0,1,1.14.26c.17.42,0,.74-.6,1.18"/><path class="cls-5" d="M56.69,159.57a.76.76,0,0,1-.7.84.85.85,0,0,1-.78-.72c0-.33.46-.72.88-.74a.56.56,0,0,1,.6.62"/><path class="cls-5" d="M76.33,160.71v-.3a.75.75,0,0,1,.77-.6.72.72,0,0,1,.53.79,1.62,1.62,0,0,1-.17.35c-.12.18-.24.37-.53.35a.7.7,0,0,1-.59-.5c0-.08,0-.16,0-.09"/><path class="cls-5" d="M70.21,159.83a.68.68,0,0,1-.66.7.87.87,0,0,1-.69-.73.85.85,0,0,1,.86-.59.55.55,0,0,1,.49.62"/><path class="cls-5" d="M46.85,160c-.44,0-.71-.15-.76-.39s.07-.41.47-.57a.76.76,0,0,1,.16-.06c.43-.13.72-.06.82.21a.59.59,0,0,1-.42.76.82.82,0,0,1-.27.05"/><path class="cls-5" d="M53,159.42c0,.52-.21.8-.53.84a.72.72,0,0,1-.7-.37c-.14-.25,0-.44.17-.61s.46-.41.75-.28.26.34.31.42"/><path class="cls-5" d="M87.18,158.21c.45.27.51.52.19.86a1.59,1.59,0,0,1-.43.33.66.66,0,0,1-.94-.14.77.77,0,0,1,.06-1,1,1,0,0,1,1.12,0"/><path class="cls-5" d="M83,155.6c.15,0,.38-.15.53-.1a2.14,2.14,0,0,1,.43.2,1.08,1.08,0,0,1,.34.36.46.46,0,0,1-.09.64l-.32.24a.66.66,0,0,1-.89,0,.69.69,0,0,1-.24-.82,5.31,5.31,0,0,1,.24-.49"/><path class="cls-5" d="M77.2,149.84a1.56,1.56,0,0,1,.13.19,1,1,0,0,1,.19.78.74.74,0,0,1-.64.5c-.55.1-1-.44-.81-.89s.56-.46,1.13-.58"/><path class="cls-5" d="M88.28,160.33a.72.72,0,0,1-.86.64.91.91,0,0,1-.35-.22.75.75,0,0,1-.33-.57.77.77,0,0,1,.38-.53,1.31,1.31,0,0,1,.43-.08,1.12,1.12,0,0,1,.33,0c.38.09.45.34.4.74"/><path class="cls-5" d="M75,148.63a2.28,2.28,0,0,1-.16.25.73.73,0,0,1-1,.09.68.68,0,0,1,0-.94,1.35,1.35,0,0,1,.33-.19c.2-.09.39-.18.6,0a.69.69,0,0,1,.21.74c0,.07-.07.13,0,.07"/><path class="cls-5" d="M79.52,152.84a.66.66,0,0,1,1-.18.85.85,0,0,1,.06,1,.88.88,0,0,1-1-.06.57.57,0,0,1,0-.78"/><path class="cls-5" d="M78.41,160c-.44,0-.71-.15-.76-.38s.07-.42.45-.58a1.15,1.15,0,0,1,.17-.06,1.07,1.07,0,0,1,.61,0,.42.42,0,0,1,.31.28.62.62,0,0,1-.51.72.86.86,0,0,1-.27.05"/><path class="cls-5" d="M84.56,159.68c-.08.52-.31.77-.61.8a.76.76,0,0,1-.69-.38c-.15-.24,0-.44.16-.61s.5-.41.83-.26.26.37.31.45"/><path class="cls-5" d="M60.58,149.14c.39-.43.63-.38.89,0a1.6,1.6,0,0,1,.21.5,1.66,1.66,0,0,1,0,.28.38.38,0,0,1,0,.18c0,.11-.14.26-.43.46a.66.66,0,0,1-1.07-.33,1.62,1.62,0,0,1,.07-.57,1.25,1.25,0,0,1,.25-.52"/><path class="cls-5" d="M56.7,152.09c0-.16-.07-.41,0-.56a1.19,1.19,0,0,1,1-.52.46.46,0,0,1,.47.43,2.55,2.55,0,0,1,0,.39.63.63,0,0,1-.35.69.67.67,0,0,1-.74-.1c-.12-.08-.23-.19-.42-.33"/><path class="cls-5" d="M49.56,155.65h.21a1.35,1.35,0,0,1,.72.22.71.71,0,0,1,.19.79.74.74,0,0,1-.55.5.65.65,0,0,1-.6-.18.61.61,0,0,1-.27-.52,2.59,2.59,0,0,1,.3-.8"/><path class="cls-5" d="M64.3,147.21a.74.74,0,0,1,.19-1.08.82.82,0,0,1,1,.28,1,1,0,0,1-.4,1c-.28.18-.58.1-.81-.24"/><path class="cls-5" d="M47.62,157.47a2,2,0,0,1,.16.26.74.74,0,0,1-.32.91.79.79,0,0,1-.51,0,.59.59,0,0,1-.44-.26.83.83,0,0,1-.06-.42.66.66,0,0,1,.34-.68.64.64,0,0,1,.78.11c0,.05.09.12,0,.06"/><path class="cls-5" d="M53.21,154.92a.71.71,0,0,1,.13-.93.92.92,0,0,1,1,.11.59.59,0,0,1,.06.51.9.9,0,0,1-.38.53.53.53,0,0,1-.79-.22"/><path class="cls-5" d="M72.91,148c.35.27.48.55.39.77s-.3.3-.72.18l-.17,0c-.43-.16-.62-.4-.54-.68a.6.6,0,0,1,.79-.35,2,2,0,0,1,.25.12"/><path class="cls-5" d="M67.54,146.09c0-.52.18-.83.51-.84a.65.65,0,0,1,.65.47c.07.27-.09.43-.28.57s-.41.35-.62.21-.21-.33-.26-.41"/><path class="cls-2" d="M25.79,177.89a1.3,1.3,0,0,1-1.37,1.42,2.2,2.2,0,0,1-1.66-1.76c0-.57,1.08-1.43,1.8-1.41s1.24.83,1.23,1.75"/><path class="cls-2" d="M40.6,175.87a1.15,1.15,0,0,1-1.24,1.22,1.94,1.94,0,0,1-1.5-1.52c0-.49,1-1.23,1.63-1.22a1.4,1.4,0,0,1,1.11,1.52"/><path class="cls-2" d="M55.37,179a1.15,1.15,0,0,1,1.4-1A2,2,0,0,1,58,179.68c-.07.49-1.14,1.09-1.79,1a1.39,1.39,0,0,1-.88-1.65"/><path class="cls-2" d="M20.46,174.71A1.38,1.38,0,0,1,19,176a.84.84,0,0,1-.48-.19l-.14-.1-.1-.11a2.89,2.89,0,0,0-.25-.24,3.57,3.57,0,0,1-.49-.56,1,1,0,0,1-.18-.55,1.22,1.22,0,0,1,.14-.5,1.44,1.44,0,0,1,.38-.51,2.74,2.74,0,0,1,.74-.38,1.83,1.83,0,0,1,.67-.12c.63,0,1.23,1.05,1.15,2"/><path class="cls-2" d="M54.29,176.7A1.4,1.4,0,0,1,52.85,178a.84.84,0,0,1-.48-.2l-.14-.1-.1-.11-.25-.24a2.85,2.85,0,0,1-.49-.56.91.91,0,0,1-.18-.54,1.31,1.31,0,0,1,.14-.51,1.44,1.44,0,0,1,.38-.51,3.06,3.06,0,0,1,.74-.38,2,2,0,0,1,.66-.12c.64,0,1.24,1.06,1.16,2"/><path class="cls-2" d="M36.3,178.45c-.08,1-.44,1.47-1.24,1.48a1.31,1.31,0,0,1-.81-.26,3.55,3.55,0,0,1-.75-1.08,1,1,0,0,1,.45-1.34c.47-.31,1-.71,1.58-.35a1.5,1.5,0,0,1,.77,1.55"/><path class="cls-2" d="M28.43,175.08a1.94,1.94,0,0,1,.37-.58,3.46,3.46,0,0,1,1-.54c.72-.27.95-.18,1.32.44a2.34,2.34,0,0,1,0,2,1.2,1.2,0,0,1-1.39.52,2.28,2.28,0,0,1-1.33-1.89"/><path class="cls-2" d="M46.83,178.74c0,1-.32,1.43-1.11,1.56a.93.93,0,0,1-.64-.1,2.75,2.75,0,0,1-.82-.77,1.28,1.28,0,0,1,0-1.56,1.78,1.78,0,0,1,1.72-.64c.57.09.91.71.89,1.51"/><path class="cls-2" d="M62.67,176.66c.18,1.07-.15,1.53-1.18,1.6a1.13,1.13,0,0,1-.32,0,1.45,1.45,0,0,1-.29-.11,2.51,2.51,0,0,1-.54-.38,1.77,1.77,0,0,1-.57-1.09,1.21,1.21,0,0,1,.49-1,2.43,2.43,0,0,1,1.19-.45c.66-.05,1.06.41,1.22,1.41"/><path class="cls-2" d="M99.32,177.75A1.14,1.14,0,0,1,98.08,179a2,2,0,0,1-1.5-1.51c0-.5,1-1.24,1.63-1.23a1.4,1.4,0,0,1,1.11,1.52"/><path class="cls-2" d="M73.07,176.88a1.25,1.25,0,0,1-1.34,1.05.91.91,0,0,1-.44-.16l-.13-.09-.09-.09-.23-.2a2.46,2.46,0,0,1-.46-.45.77.77,0,0,1-.17-.45,1.26,1.26,0,0,1,.13-.42,1.35,1.35,0,0,1,.36-.42,3.18,3.18,0,0,1,.68-.31,2.29,2.29,0,0,1,.62-.1c.59,0,1.14.87,1.07,1.64"/><path class="cls-2" d="M83.35,176.88A1.25,1.25,0,0,1,82,177.93a.91.91,0,0,1-.44-.16l-.12-.09a.28.28,0,0,1-.1-.09l-.23-.2a2.46,2.46,0,0,1-.46-.45.69.69,0,0,1-.16-.45,1,1,0,0,1,.12-.42,1.35,1.35,0,0,1,.36-.42,3.25,3.25,0,0,1,.69-.31,2.22,2.22,0,0,1,.61-.1c.59,0,1.15.87,1.07,1.64"/><path class="cls-2" d="M105.5,176.53a1.25,1.25,0,0,1-1.33,1.05.94.94,0,0,1-.45-.16l-.12-.09-.1-.09-.23-.2a2.81,2.81,0,0,1-.46-.45.75.75,0,0,1-.16-.45.89.89,0,0,1,.13-.42,1.18,1.18,0,0,1,.35-.42,3.25,3.25,0,0,1,.69-.31,1.94,1.94,0,0,1,.61-.1c.59,0,1.15.87,1.07,1.64"/><path class="cls-2" d="M66,178.16a1.24,1.24,0,0,1,1.65-.37.88.88,0,0,1,.32.34l.08.13a.56.56,0,0,0,0,.12c0,.09.07.18.11.28a2.49,2.49,0,0,1,.2.62.81.81,0,0,1,0,.48,1,1,0,0,1-.3.31,1.29,1.29,0,0,1-.5.23,2.67,2.67,0,0,1-.75,0,1.85,1.85,0,0,1-.59-.18c-.51-.27-.62-1.28-.21-1.94"/><path class="cls-2" d="M90.94,175.41a1.21,1.21,0,0,1,1.64-.36.88.88,0,0,1,.32.34l.08.13a.56.56,0,0,0,0,.12c0,.09.07.18.11.28a2.49,2.49,0,0,1,.2.62.77.77,0,0,1,0,.47.91.91,0,0,1-.3.32,1.29,1.29,0,0,1-.5.23,3.11,3.11,0,0,1-.75,0,1.79,1.79,0,0,1-.58-.18c-.51-.27-.62-1.28-.21-2"/><path class="cls-2" d="M76.08,178a1.12,1.12,0,0,1,1.48-.2,1,1,0,0,1,.31.3l.07.11,0,.1a2.67,2.67,0,0,0,.12.24,1.84,1.84,0,0,1,.21.51.55.55,0,0,1,0,.39.72.72,0,0,1-.25.24,1,1,0,0,1-.44.15,2.54,2.54,0,0,1-.68,0,2.28,2.28,0,0,1-.54-.18,1.22,1.22,0,0,1-.31-1.61"/><path class="cls-2" d="M88.53,179.11a1,1,0,0,1-1.34.42.63.63,0,0,1-.29-.26l-.07-.1,0-.1-.11-.23a2.13,2.13,0,0,1-.21-.5.78.78,0,0,1,0-.41,1,1,0,0,1,.63-.51,2.21,2.21,0,0,1,.62,0,1.59,1.59,0,0,1,.5.1c.44.2.59,1,.29,1.63"/><path class="cls-2" d="M15.23,178.33a1,1,0,0,1-1.35.43.84.84,0,0,1-.29-.26l-.06-.11a.93.93,0,0,1,0-.1l-.11-.23a1.94,1.94,0,0,1-.2-.5.66.66,0,0,1,0-.4.89.89,0,0,1,.23-.29,1.07,1.07,0,0,1,.41-.23,2.14,2.14,0,0,1,.61,0,1.53,1.53,0,0,1,.5.11c.44.19.6,1,.3,1.62"/><path class="cls-2" d="M44.2,38.05a1.31,1.31,0,0,1-1.38,1.42,2.2,2.2,0,0,1-1.65-1.76c0-.57,1.08-1.43,1.8-1.41s1.24.83,1.23,1.75"/><path class="cls-2" d="M26.89,41.12a1.14,1.14,0,0,1-1.24,1.22,1.94,1.94,0,0,1-1.49-1.51c0-.5,1-1.24,1.63-1.23s1.11.72,1.1,1.52"/><path class="cls-2" d="M60.17,41a1.16,1.16,0,0,1,1.4-1,2,2,0,0,1,1.27,1.71c-.07.5-1.14,1.1-1.78,1A1.4,1.4,0,0,1,60.17,41"/><path class="cls-2" d="M19.85,39.08a1.38,1.38,0,0,1-1.44,1.27.92.92,0,0,1-.48-.19l-.13-.11a.94.94,0,0,1-.1-.1l-.26-.25a2.85,2.85,0,0,1-.49-.56,1,1,0,0,1-.18-.54,1.59,1.59,0,0,1,.53-1,2.52,2.52,0,0,1,.73-.37,1.64,1.64,0,0,1,.67-.12c.63,0,1.23,1,1.15,2"/><path class="cls-2" d="M56.34,37.44a1.4,1.4,0,0,1-1.45,1.28.9.9,0,0,1-.48-.2l-.13-.1-.1-.11-.25-.24a3.29,3.29,0,0,1-.5-.56,1,1,0,0,1-.17-.54,1.31,1.31,0,0,1,.14-.51,1.44,1.44,0,0,1,.38-.51,3.06,3.06,0,0,1,.74-.38,2,2,0,0,1,.66-.12c.64,0,1.24,1.06,1.16,2"/><path class="cls-2" d="M38,41.44c-.08,1-.43,1.48-1.24,1.49a1.23,1.23,0,0,1-.8-.27,3.45,3.45,0,0,1-.75-1.07,1,1,0,0,1,.44-1.35c.48-.3,1-.7,1.58-.35A1.48,1.48,0,0,1,38,41.44"/><path class="cls-2" d="M30.09,38.07a1.73,1.73,0,0,1,.37-.57,3.26,3.26,0,0,1,1-.55c.71-.26.95-.18,1.31.45a2.31,2.31,0,0,1,0,2.05,1.19,1.19,0,0,1-1.39.52,2.27,2.27,0,0,1-1.32-1.9"/><path class="cls-2" d="M68.55,36.79c0,1-.32,1.43-1.11,1.56a.93.93,0,0,1-.64-.1,2.75,2.75,0,0,1-.82-.77,1.28,1.28,0,0,1,0-1.56,1.78,1.78,0,0,1,1.72-.64c.57.08.91.71.89,1.51"/><path class="cls-2" d="M100.33,39.9a1.15,1.15,0,0,1-1.24,1.22,1.94,1.94,0,0,1-1.5-1.51c0-.5,1-1.24,1.63-1.23a1.4,1.4,0,0,1,1.11,1.52"/><path class="cls-2" d="M88.8,40.64a1.23,1.23,0,0,1-1.33,1,.94.94,0,0,1-.45-.16l-.12-.08-.1-.09-.23-.2a2.86,2.86,0,0,1-.46-.46.75.75,0,0,1-.16-.45.85.85,0,0,1,.13-.41,1.21,1.21,0,0,1,.35-.42,2.49,2.49,0,0,1,.69-.31,1.69,1.69,0,0,1,.61-.1c.59,0,1.15.86,1.07,1.63"/><path class="cls-2" d="M80.87,38a1.24,1.24,0,0,1-1.34,1,.91.91,0,0,1-.44-.16L79,38.81l-.09-.09-.23-.2a2.5,2.5,0,0,1-.46-.46.77.77,0,0,1-.17-.45,1.15,1.15,0,0,1,.13-.41,1.16,1.16,0,0,1,.36-.42,2.43,2.43,0,0,1,.68-.31,1.71,1.71,0,0,1,.62-.1c.59,0,1.14.86,1.07,1.63"/><path class="cls-2" d="M71.92,40.15a1.22,1.22,0,0,1,1.65-.36.82.82,0,0,1,.32.34.54.54,0,0,1,.07.13l.05.12c0,.09.07.18.11.28a2.49,2.49,0,0,1,.2.62.77.77,0,0,1,0,.47,1.12,1.12,0,0,1-.3.32,1.27,1.27,0,0,1-.51.23,3,3,0,0,1-.74,0,1.85,1.85,0,0,1-.59-.18c-.51-.27-.62-1.28-.21-2"/><path class="cls-2" d="M91.26,36a1.22,1.22,0,0,1,1.65-.36.82.82,0,0,1,.32.34l.07.12,0,.13.12.28a3.1,3.1,0,0,1,.2.61.78.78,0,0,1-.06.48,1,1,0,0,1-.3.32,1.22,1.22,0,0,1-.5.22,2.6,2.6,0,0,1-.74,0,1.77,1.77,0,0,1-.59-.18A1.51,1.51,0,0,1,91.26,36"/><path class="cls-2" d="M105.38,35.78c.4,0,.71.34.78.86a.6.6,0,0,1-.06.33.3.3,0,0,1,0,.1l0,.07-.1.19a1.64,1.64,0,0,1-.25.36.43.43,0,0,1-.27.16.74.74,0,0,1-.27-.06,1,1,0,0,1-.3-.22,2.16,2.16,0,0,1-.26-.47,1.73,1.73,0,0,1-.12-.43,1,1,0,0,1,.94-.89"/><path class="cls-2" d="M50.21,42.58a1,1,0,0,1-1.34.42.68.68,0,0,1-.29-.26l-.07-.1a.42.42,0,0,0,0-.1l-.11-.23a2.09,2.09,0,0,1-.2-.5.7.7,0,0,1,0-.41,1,1,0,0,1,.23-.29,1.06,1.06,0,0,1,.41-.22,2.14,2.14,0,0,1,.61,0,1.31,1.31,0,0,1,.5.11c.44.19.59,1,.29,1.62"/><path class="cls-5" d="M17.89,82.31a1.14,1.14,0,0,1-.68-1.08,1.66,1.66,0,0,1,2.84-.77,1,1,0,0,1,.22,1,1.37,1.37,0,0,1-.54.84,1.21,1.21,0,0,1-1,.3,2.09,2.09,0,0,1-.86-.27"/><path class="cls-5" d="M23.58,85.68a2.74,2.74,0,0,1-.39.27.69.69,0,0,1-.83,0,2.2,2.2,0,0,1-.83-1.48,1.38,1.38,0,0,1,.58-1,1.65,1.65,0,0,1,1.28-.26A1.28,1.28,0,0,1,24,85.21c-.1.12-.22.23-.45.47"/><path class="cls-5" d="M15.84,79a2,2,0,0,1-1.77,1.08,1.18,1.18,0,0,1-.89-1.3A1.27,1.27,0,0,1,14,77.58a1.47,1.47,0,0,1,1.56.16A1,1,0,0,1,15.84,79"/><path class="cls-5" d="M11.25,76.78a1.23,1.23,0,0,1-1.52.87.89.89,0,0,1-.57-1.26c.25-.72.91-1.2,1.44-1a1.12,1.12,0,0,1,.65,1.43"/><path class="cls-5" d="M29,99.43c-.31.73-1.29,1.26-1.91.75s-1-1.29-.69-1.9a3.44,3.44,0,0,1,.33-.56,1.26,1.26,0,0,1,2.13.24A4.41,4.41,0,0,1,29,99.43"/><path class="cls-5" d="M24.87,104a1.07,1.07,0,0,1,1.18-.41,1.41,1.41,0,0,1,1,1.23,1.6,1.6,0,0,1-.62,1.56,1.29,1.29,0,0,1-1.77-.39,1.46,1.46,0,0,1,.21-2"/><path class="cls-5" d="M28.55,95.24A2.28,2.28,0,0,1,27,93.89a1.19,1.19,0,0,1,.91-1.24,1.26,1.26,0,0,1,1.44.38,1.51,1.51,0,0,1,.35,1.63,1,1,0,0,1-1.18.58"/><path class="cls-5" d="M27.22,88.22a1.18,1.18,0,1,1-2.14,1c-.37-.83-.1-1.39.52-1.6a1.52,1.52,0,0,1,1.62.63"/><path class="cls-5" d="M15.16,124.55a1.14,1.14,0,0,1,1.23-.33,1.5,1.5,0,0,1,.85,1.33,2,2,0,0,1-.12.85,1.57,1.57,0,0,1-.73.71,1.36,1.36,0,0,1-1.68-.68,1.47,1.47,0,0,1,.45-1.88"/><path class="cls-5" d="M12.43,133.42a2.29,2.29,0,0,1-.47-.08.71.71,0,0,1-.54-.71,2.22,2.22,0,0,1,.72-1.78c.72-.56,1.79.26,2.09.87a1.25,1.25,0,0,1-1.15,1.69h-.65"/><path class="cls-5" d="M18.84,121.49a2.69,2.69,0,0,1-1-1.73,1.16,1.16,0,0,1,1.24-.91,1.21,1.21,0,0,1,1.27.77,1.52,1.52,0,0,1-.17,1.68.9.9,0,0,1-1.33.19"/><path class="cls-5" d="M12.45,138.79A1.08,1.08,0,0,1,11,140l-.37-.1a.92.92,0,0,1-.81-.92,1.21,1.21,0,0,1,.68-1.26,1.32,1.32,0,0,1,2,1.12"/><path class="cls-5" d="M24.41,110.83a1.17,1.17,0,1,1-2.28-.54c.17-.78.69-1.13,1.33-1a1.42,1.42,0,0,1,.95,1.49"/><path class="cls-5" d="M21.37,116.29a1.33,1.33,0,0,1-1.25-1.18.86.86,0,0,1,1-1c.76.08,1.39.55,1.41,1a1.09,1.09,0,0,1-1.2,1.12"/><path class="cls-5" d="M10.46,152.84c-.81.09-1.69-.49-1.6-1.28.1-.95.62-1.55,1.3-1.55a2.53,2.53,0,0,1,.55,0c.66.11,1.68.89,1.08,1.85a3.9,3.9,0,0,1-1.33,1"/><path class="cls-5" d="M11.6,145.05a1.17,1.17,0,1,1-2.3.44c-.17-.81.18-1.37.84-1.43a1.47,1.47,0,0,1,1.46,1"/><path class="cls-5" d="M105.11,135.2c-.7-.44-1.25-1.41-.7-2a1.66,1.66,0,0,1,2.31-.34,4.06,4.06,0,0,1,.65.51c.61.73.53,2-.65,2.06a9.74,9.74,0,0,1-1.61-.22"/><path class="cls-5" d="M104,127.49a1.32,1.32,0,0,1,.27,1.33,1.21,1.21,0,0,1-1.39.78,2.1,2.1,0,0,1-1.64-1.29,1.25,1.25,0,0,1,.78-1.76c.81-.21,1.38.12,2,.94"/><path class="cls-5" d="M103.17,120.66a4.34,4.34,0,0,1,.48,0,.76.76,0,0,1,.69.5,3.08,3.08,0,0,1,.16,1.74,1.33,1.33,0,0,1-2.24.46c-.9-.86-.7-2.36.28-2.59a6,6,0,0,1,.63-.12"/><path class="cls-5" d="M109.49,138.36a2.09,2.09,0,0,1,1.93-1.14,1.46,1.46,0,0,1,1.28,1.39,1.34,1.34,0,0,1-1,1.17,2,2,0,0,1-1.78-.13,1,1,0,0,1-.47-1.29"/><path class="cls-5" d="M113.2,142.23a1.42,1.42,0,0,1,1.67-1,1,1,0,0,1,.86,1.23,1.39,1.39,0,0,1-1.53,1.13,1.17,1.17,0,0,1-1-1.39"/><path class="cls-5" d="M110.17,107a1.41,1.41,0,0,1-.15,1.6,1.35,1.35,0,0,1-1.59.06,2,2,0,0,1-1.11-1.31,1.39,1.39,0,0,1,.88-1.65c.78-.24,1.46.12,2,1.3"/><path class="cls-5" d="M109.39,111.94a1.22,1.22,0,0,1,.18,1.13,2,2,0,0,1-.84,1.11,1.38,1.38,0,0,1-1.8-.31,1.18,1.18,0,0,1,0-1.52,1.91,1.91,0,0,1,1.34-.95,1.31,1.31,0,0,1,1.14.54"/><path class="cls-5" d="M106.62,100.43a1.57,1.57,0,0,1,.46-1.18,1.07,1.07,0,0,1,1.12,0,2.52,2.52,0,0,0,.34.15,1,1,0,0,1,.73,1.11,1.33,1.33,0,0,1-.68,1.25,1.4,1.4,0,0,1-1.31.13,1.46,1.46,0,0,1-.66-1.45"/><path class="cls-5" d="M106.52,116.65a1.36,1.36,0,0,1-.81,1.72,1,1,0,0,1-1.39-.44,1.28,1.28,0,0,1,.58-1.87,1.19,1.19,0,0,1,1.62.59"/><path class="cls-5" d="M114,85.88c.7-.37,1.82-.35,2.11.4a1.58,1.58,0,0,1-.84,2.14,3.5,3.5,0,0,1-.79.31c-1.07.23-1.91-.66-1.43-1.61a7.72,7.72,0,0,1,.95-1.24"/><path class="cls-5" d="M107.81,94.22c.14-.7.59-1.26,1.27-1.23s1.21.64,1,1.66-.61,1.26-1.27,1.24-1.18-1-1-1.67"/><path class="cls-5" d="M112.46,90.17a1.52,1.52,0,0,1,.15,1.82,1.09,1.09,0,0,1-1.33.47,1.3,1.3,0,1,1,1.18-2.29"/><path class="cls-2" d="M117.59,121.86c-.8-2.17-1.78,4.8-2.66-2.57,0-14.51.63-29.07.36-43.58a189.44,189.44,0,0,0-1.47-21.62,82.24,82.24,0,0,0-5.19-20.64,46.5,46.5,0,0,0-7.12-12.13A37.48,37.48,0,0,0,90.7,12.39c-8.44-4.71-18.42-6.5-28.31-6.85a70.86,70.86,0,0,0-14.79.69,46.36,46.36,0,0,0-13.93,4.32,35.6,35.6,0,0,0-11.35,9,48.27,48.27,0,0,0-7.48,12.64c-3.77,9.2-5.49,19.2-6.59,29.19C7,73.44,6.77,85.67,6.68,97.9s-.09,24.48.27,36.68c.22,7.07.6,14.13,1.35,21.14a127.74,127.74,0,0,0,3.75,20.73,60.38,60.38,0,0,0,8.52,18.94,39,39,0,0,0,15.64,13.09,48.39,48.39,0,0,0,13.65,3.92,80.66,80.66,0,0,0,14.33.71c9.51-.39,19.17-2.43,27-7.75a41.22,41.22,0,0,0,10.17-9.77,55.61,55.61,0,0,0,6.8-12.53c3.54-8.91,5.42-18.45,6.63-28,1.32-10.58,2-20.53,2.87-28.7.57-5.28,1.21-4.72,1.48,1.68.13,4,.14,8.63-.1,12.95a174.26,174.26,0,0,1-4,31,86.38,86.38,0,0,1-4.94,15,52.86,52.86,0,0,1-8.44,13.64A43.27,43.27,0,0,1,83.76,213a64.42,64.42,0,0,1-21.19,3.65,71.1,71.1,0,0,1-21.31-2.53A48.42,48.42,0,0,1,31.2,209.8a42.22,42.22,0,0,1-8.7-6.7,48.81,48.81,0,0,1-7.23-9.49,70.34,70.34,0,0,1-4.88-10.73,114.31,114.31,0,0,1-5.05-22.62C3.4,145,3.28,129.76,3.21,114.6s-.08-30.32,1-45.55a173,173,0,0,1,2.94-22.8c1.58-7.53,3.87-15.06,7.8-21.9A43.39,43.39,0,0,1,25.31,12,42.81,42.81,0,0,1,39.67,4.62,63.72,63.72,0,0,1,55.43,2.18l4-.07,4,.15c2.63,0,5.26.42,7.89.65A71.17,71.17,0,0,1,86.66,6.74a44.84,44.84,0,0,1,13.6,8.34,44.07,44.07,0,0,1,9.62,12.68,65.93,65.93,0,0,1,5.33,14.9,106,106,0,0,1,2.36,14.83c.48,5,.74,10,.86,15,.26,10,.07,20,.11,29.92a183.77,183.77,0,0,1-1,19.45"/></svg>