<?xml version="1.0" encoding="UTF-8"?>
<svg xmlns="http://www.w3.org/2000/svg" xmlns:xlink="http://www.w3.org/1999/xlink" version="1.1" id="Layer_1" x="0px" y="0px" viewBox="0 0 313.1 235.8" style="enable-background:new 0 0 313.1 235.8;" xml:space="preserve"> <style type="text/css"> .st0{fill:#094268;stroke:#FFFFFF;stroke-width:0.99;stroke-linejoin:round;stroke-miterlimit:10;} .st1{fill:#FAA61A;stroke:#FFFFFF;stroke-width:0.99;stroke-linejoin:round;stroke-miterlimit:10;} .st2{fill:#FFFFFF;stroke:#FFFFFF;stroke-width:0.99;stroke-linejoin:round;stroke-miterlimit:10;} </style> <g> <g> <g> <path d="M46.6,135.5L22.7,99.2v36.3h-7.8V83.9h7.2l23.8,36.2V83.9h7.8v51.6H46.6z"/> <path d="M82.4,135.9c-5.4,0-10-2-13.6-5.5c-5.1-5.1-5-10.8-5-20.7c0-9.9-0.1-15.7,5-20.7c3.6-3.6,8.2-5.5,13.6-5.5 c9.5,0,16.6,5.6,18.4,15.9h-8c-1.2-5.2-4.7-8.8-10.4-8.8c-3,0-5.8,1.2-7.6,3.1c-2.5,2.8-3.1,5.7-3.1,16.1 c0,10.4,0.6,13.3,3.1,16.1c1.8,2,4.6,3.1,7.6,3.1c5.7,0,9.3-3.6,10.5-8.8h7.9C99.1,130.4,91.8,135.9,82.4,135.9z"/> <path d="M138.3,135.5l-10.9-21.7h-9.8v21.7h-7.8V83.9h20c9.8,0,16,6.3,16,15.1c0,7.4-4.5,12.1-10.3,13.7l11.9,22.8H138.3z M129.3,90.9h-11.6v16.2h11.6c5.2,0,8.8-3,8.8-8C138,94,134.5,90.9,129.3,90.9z"/> <path d="M155.9,135.5V83.9h7.8v51.6H155.9z"/> <path d="M189.4,135.9c-7.8,0-13.3-1.8-18.3-6.8l5.2-5.1c3.8,3.8,7.9,4.9,13.2,4.9c6.7,0,10.7-2.9,10.7-7.9c0-2.2-0.7-4.1-2-5.4 c-1.3-1.2-2.6-1.7-5.7-2.2l-6.1-0.9c-4.2-0.6-7.5-2-9.8-4.1c-2.5-2.4-3.8-5.7-3.8-9.9c0-9,6.5-15.1,17.2-15.1 c6.8,0,11.6,1.7,16,5.9l-5,4.9c-3.2-3-6.9-4-11.2-4c-6.1,0-9.4,3.5-9.4,8c0,1.9,0.6,3.6,2,4.8c1.3,1.2,3.4,2,5.8,2.4l5.9,0.9 c4.8,0.7,7.5,1.9,9.6,3.8c2.8,2.5,4.2,6.2,4.2,10.6C208,130.3,200.2,135.9,189.4,135.9z"/> </g> <g> <path d="M25.7,162.6l-9.1-13.7v13.7h-1.8v-17.1h1.7l9.1,13.7v-13.7h1.8v17.1H25.7z"/> <path d="M38.7,162.6v-1.1c-1,1-1.8,1.3-3.4,1.3c-1.6,0-2.6-0.3-3.3-1.1c-0.6-0.6-0.9-1.5-0.9-2.4c0-2.1,1.4-3.4,4.1-3.4h3.6v-1.1 c0-1.7-0.9-2.6-3-2.6c-1.5,0-2.3,0.4-3,1.3l-1.2-1.1c1.1-1.4,2.3-1.8,4.2-1.8c3.2,0,4.7,1.4,4.7,3.9v8H38.7z M38.7,157.2h-3.3 c-1.8,0-2.6,0.7-2.6,2.1c0,1.4,0.8,2,2.7,2c1,0,1.9-0.1,2.6-0.8c0.4-0.4,0.6-1.1,0.6-2V157.2z"/> <path d="M48,162.6c-2,0-3-1.4-3-3.2v-7.2h-1.5v-1.3H45v-3.7h1.7v3.7h2.5v1.3h-2.5v7.2c0,1.1,0.5,1.7,1.6,1.7h0.9v1.5H48z"/> <path d="M53.5,147.6c-0.6,0-1.2-0.5-1.2-1.2c0-0.6,0.5-1.2,1.2-1.2c0.6,0,1.2,0.5,1.2,1.2C54.7,147,54.2,147.6,53.5,147.6z M52.6,162.6v-11.8h1.7v11.8H52.6z"/> <path d="M66.3,161.4c-0.8,0.8-1.9,1.3-3.4,1.3c-1.4,0-2.6-0.5-3.4-1.3c-1.2-1.2-1.4-2.9-1.4-4.7c0-1.8,0.2-3.5,1.4-4.7 c0.8-0.8,1.9-1.3,3.4-1.3c1.4,0,2.6,0.5,3.4,1.3c1.2,1.2,1.4,2.9,1.4,4.7C67.7,158.6,67.5,160.2,66.3,161.4z M65.1,153.1 c-0.6-0.6-1.3-0.9-2.2-0.9c-0.8,0-1.6,0.3-2.1,0.9c-0.9,0.9-1,2.3-1,3.6c0,1.3,0.1,2.8,1,3.6c0.6,0.6,1.3,0.9,2.1,0.9 c0.8,0,1.6-0.3,2.2-0.9c0.9-0.9,0.9-2.3,0.9-3.6C66,155.4,65.9,153.9,65.1,153.1z"/> <path d="M79,162.6v-7.3c0-2.1-1.1-3.1-2.9-3.1c-1.8,0-2.9,1.1-2.9,3.1v7.3h-1.7v-11.8h1.7v1.3c0.8-1,2-1.4,3.3-1.4 c1.3,0,2.3,0.4,3,1.1c0.8,0.8,1.2,1.9,1.2,3.3v7.6H79z"/> <path d="M91.6,162.6v-1.1c-1,1-1.8,1.3-3.4,1.3c-1.6,0-2.6-0.3-3.3-1.1c-0.6-0.6-0.9-1.5-0.9-2.4c0-2.1,1.4-3.4,4.1-3.4h3.6v-1.1 c0-1.7-0.9-2.6-3-2.6c-1.5,0-2.3,0.4-3,1.3l-1.2-1.1c1.1-1.4,2.3-1.8,4.2-1.8c3.2,0,4.7,1.4,4.7,3.9v8H91.6z M91.6,157.2h-3.3 c-1.8,0-2.6,0.7-2.6,2.1c0,1.4,0.8,2,2.7,2c1,0,1.9-0.1,2.6-0.8c0.4-0.4,0.6-1.1,0.6-2V157.2z"/> <path d="M100.5,162.6c-2.1,0-3-1.3-3-3.1v-13.9h1.7v13.9c0,1.2,0.4,1.7,1.6,1.7h0.9v1.5H100.5z"/> <path d="M120.8,162.6l-3.9-7.6h-4.1v7.6H111v-17.1h6.6c3,0,5.1,1.8,5.1,4.8c0,2.5-1.5,4.1-3.7,4.6l4.1,7.8H120.8z M117.3,147.2 h-4.6v6.3h4.6c2,0,3.4-1,3.4-3.1C120.8,148.2,119.3,147.2,117.3,147.2z"/> <path d="M127.5,157.2c0,2.6,1.2,4.1,3.5,4.1c1.4,0,2.2-0.4,3.1-1.3l1.2,1c-1.2,1.2-2.3,1.8-4.3,1.8c-3.1,0-5.2-1.9-5.2-6 c0-3.8,1.8-6,4.8-6c3,0,4.8,2.2,4.8,5.7v0.8H127.5z M133.4,153.9c-0.5-1.1-1.5-1.8-2.8-1.8c-1.2,0-2.3,0.7-2.8,1.8 c-0.3,0.6-0.3,1-0.4,2h6.2C133.7,154.9,133.6,154.6,133.4,153.9z"/> <path d="M142.8,162.8c-2,0-3.6-0.5-4.8-1.7l1.2-1.2c0.9,1,2.2,1.4,3.7,1.4c1.9,0,3.1-0.7,3.1-2.1c0-1-0.6-1.6-2-1.7l-1.9-0.2 c-2.3-0.2-3.5-1.2-3.5-3.2c0-2.2,1.8-3.5,4.3-3.5c1.7,0,3.2,0.4,4.2,1.3l-1.1,1.1c-0.8-0.6-1.9-0.9-3.1-0.9 c-1.7,0-2.6,0.7-2.6,1.9c0,1,0.6,1.6,2.1,1.7l1.9,0.2c2.1,0.2,3.5,1,3.5,3.2C147.6,161.5,145.7,162.8,142.8,162.8z"/> <path d="M152.1,157.2c0,2.6,1.2,4.1,3.5,4.1c1.4,0,2.2-0.4,3.1-1.3l1.2,1c-1.2,1.2-2.3,1.8-4.3,1.8c-3.1,0-5.2-1.9-5.2-6 c0-3.8,1.8-6,4.8-6c3,0,4.8,2.2,4.8,5.7v0.8H152.1z M158,153.9c-0.5-1.1-1.5-1.8-2.8-1.8c-1.2,0-2.3,0.7-2.8,1.8 c-0.3,0.6-0.3,1-0.4,2h6.2C158.3,154.9,158.2,154.6,158,153.9z"/> <path d="M170.4,162.6v-1.1c-1,1-1.8,1.3-3.4,1.3c-1.6,0-2.6-0.3-3.3-1.1c-0.6-0.6-0.9-1.5-0.9-2.4c0-2.1,1.4-3.4,4.1-3.4h3.6 v-1.1c0-1.7-0.9-2.6-3-2.6c-1.5,0-2.3,0.4-3,1.3l-1.2-1.1c1.1-1.4,2.3-1.8,4.2-1.8c3.2,0,4.7,1.4,4.7,3.9v8H170.4z M170.4,157.2 h-3.3c-1.8,0-2.6,0.7-2.6,2.1c0,1.4,0.8,2,2.7,2c1,0,1.9-0.1,2.6-0.8c0.4-0.4,0.6-1.1,0.6-2V157.2z"/> <path d="M183,153.1c-0.6-0.6-1.1-0.9-2-0.9c-1.7,0-2.8,1.4-2.8,3.2v7.2h-1.7v-11.8h1.7v1.4c0.6-1,1.9-1.6,3.3-1.6 c1.1,0,2,0.3,2.8,1.1L183,153.1z"/> <path d="M190.3,162.8c-3,0-5.2-2-5.2-6c0-4,2.3-6,5.2-6c1.6,0,2.7,0.4,3.9,1.8l-1.2,1.1c-0.9-1-1.6-1.3-2.7-1.3 c-1.2,0-2.1,0.5-2.7,1.3c-0.6,0.8-0.8,1.7-0.8,3.2c0,1.5,0.2,2.4,0.8,3.2c0.6,0.9,1.6,1.3,2.7,1.3c1.1,0,1.8-0.4,2.7-1.3l1.2,1.1 C193,162.3,191.9,162.8,190.3,162.8z"/> <path d="M205,162.6v-7.3c0-2.1-1.1-3.1-2.9-3.1c-1.8,0-3,1.1-3,3.1v7.3h-1.7v-17.1h1.7v6.6c0.9-1,2-1.4,3.3-1.4 c2.7,0,4.2,1.7,4.2,4.4v7.6H205z"/> <path d="M14.8,186.6v-17.1h1.8v17.1H14.8z"/> <path d="M28.8,186.6v-7.3c0-2.1-1.1-3.1-2.9-3.1c-1.8,0-2.9,1.1-2.9,3.1v7.3h-1.7v-11.8H23v1.3c0.8-1,2-1.4,3.3-1.4 c1.3,0,2.3,0.4,3,1.1c0.8,0.8,1.2,1.9,1.2,3.3v7.6H28.8z"/> <path d="M36.9,176.2v10.4h-1.7v-10.4h-1.5v-1.3h1.5v-2.2c0-1.8,1-3.2,3-3.2h1.2v1.5h-0.9c-1.1,0-1.6,0.6-1.6,1.7v2.2h2.5v1.3 H36.9z"/> <path d="M48.9,177.1c-0.6-0.6-1.1-0.9-2-0.9c-1.7,0-2.8,1.4-2.8,3.2v7.2h-1.7v-11.8H44v1.4c0.6-1,1.9-1.6,3.3-1.6 c1.1,0,2,0.3,2.8,1.1L48.9,177.1z"/> <path d="M58.8,186.6v-1.1c-1,1-1.8,1.3-3.4,1.3c-1.6,0-2.6-0.3-3.3-1.1c-0.6-0.6-0.9-1.5-0.9-2.4c0-2.1,1.4-3.4,4.1-3.4h3.6v-1.1 c0-1.7-0.9-2.6-3-2.6c-1.5,0-2.3,0.4-3,1.3l-1.2-1.1c1.1-1.4,2.3-1.8,4.2-1.8c3.2,0,4.7,1.4,4.7,3.9v8H58.8z M58.8,181.2h-3.3 c-1.8,0-2.6,0.7-2.6,2.1c0,1.4,0.8,2,2.7,2c1,0,1.9-0.1,2.6-0.8c0.4-0.4,0.6-1.1,0.6-2V181.2z"/> <path d="M68.5,186.8c-2,0-3.6-0.5-4.8-1.7l1.2-1.2c0.9,1,2.2,1.4,3.7,1.4c1.9,0,3.1-0.7,3.1-2.1c0-1-0.6-1.6-2-1.7l-1.9-0.2 c-2.3-0.2-3.5-1.2-3.5-3.2c0-2.2,1.8-3.5,4.3-3.5c1.7,0,3.2,0.4,4.2,1.3l-1.1,1.1c-0.8-0.6-1.9-0.9-3.1-0.9 c-1.7,0-2.6,0.7-2.6,1.9c0,1,0.6,1.6,2.1,1.7l1.9,0.2c2.1,0.2,3.5,1,3.5,3.2C73.3,185.5,71.3,186.8,68.5,186.8z"/> <path d="M79.7,186.6c-2,0-3-1.4-3-3.2v-7.2h-1.5v-1.3h1.5v-3.7h1.7v3.7H81v1.3h-2.5v7.2c0,1.1,0.5,1.7,1.6,1.7H81v1.5H79.7z"/> <path d="M91,177.1c-0.6-0.6-1.1-0.9-2-0.9c-1.7,0-2.8,1.4-2.8,3.2v7.2h-1.7v-11.8h1.7v1.4c0.6-1,1.9-1.6,3.3-1.6 c1.1,0,2,0.3,2.8,1.1L91,177.1z"/> <path d="M102,186.6v-1.3c-0.8,1-2,1.5-3.3,1.5c-1.3,0-2.3-0.4-3-1.1c-0.8-0.8-1.2-1.9-1.2-3.3v-7.5h1.7v7.3 c0,2.1,1.1,3.1,2.9,3.1c1.8,0,3-1.1,3-3.1v-7.3h1.7v11.8H102z"/> <path d="M112.6,186.8c-3,0-5.2-2-5.2-6c0-4,2.3-6,5.2-6c1.6,0,2.7,0.4,3.9,1.8l-1.2,1.1c-0.9-1-1.6-1.3-2.7-1.3 c-1.2,0-2.1,0.5-2.7,1.3c-0.6,0.8-0.8,1.7-0.8,3.2c0,1.5,0.2,2.4,0.8,3.2c0.6,0.9,1.6,1.3,2.7,1.3c1.1,0,1.8-0.4,2.7-1.3l1.2,1.1 C115.2,186.3,114.2,186.8,112.6,186.8z"/> <path d="M123.1,186.6c-2,0-3-1.4-3-3.2v-7.2h-1.5v-1.3h1.5v-3.7h1.7v3.7h2.5v1.3h-2.5v7.2c0,1.1,0.5,1.7,1.6,1.7h0.9v1.5H123.1z"/> <path d="M135.2,186.6v-1.3c-0.8,1-2,1.5-3.3,1.5c-1.3,0-2.3-0.4-3-1.1c-0.8-0.8-1.2-1.9-1.2-3.3v-7.5h1.7v7.3 c0,2.1,1.1,3.1,2.9,3.1c1.8,0,3-1.1,3-3.1v-7.3h1.7v11.8H135.2z"/> <path d="M147.8,177.1c-0.6-0.6-1.1-0.9-2-0.9c-1.7,0-2.8,1.4-2.8,3.2v7.2h-1.7v-11.8h1.7v1.4c0.6-1,1.9-1.6,3.3-1.6 c1.1,0,2,0.3,2.8,1.1L147.8,177.1z"/> <path d="M151.6,181.2c0,2.6,1.2,4.1,3.5,4.1c1.4,0,2.2-0.4,3.1-1.3l1.2,1c-1.2,1.2-2.3,1.8-4.3,1.8c-3.1,0-5.2-1.9-5.2-6 c0-3.8,1.8-6,4.8-6c3,0,4.8,2.2,4.8,5.7v0.8H151.6z M157.5,177.9c-0.5-1.1-1.5-1.8-2.8-1.8c-1.2,0-2.3,0.7-2.8,1.8 c-0.3,0.6-0.3,1-0.4,2h6.2C157.8,178.9,157.8,178.6,157.5,177.9z"/> <path d="M171.4,176.2v10.4h-1.7v-10.4h-1.5v-1.3h1.5v-2.2c0-1.8,1-3.2,3-3.2h1.2v1.5H173c-1.1,0-1.6,0.6-1.6,1.7v2.2h2.5v1.3 H171.4z"/> <path d="M184,185.4c-0.8,0.8-1.9,1.3-3.4,1.3c-1.4,0-2.6-0.5-3.4-1.3c-1.2-1.2-1.4-2.9-1.4-4.7c0-1.8,0.2-3.5,1.4-4.7 c0.8-0.8,1.9-1.3,3.4-1.3c1.4,0,2.6,0.5,3.4,1.3c1.2,1.2,1.4,2.9,1.4,4.7C185.4,182.6,185.2,184.2,184,185.4z M182.8,177.1 c-0.6-0.6-1.3-0.9-2.2-0.9c-0.8,0-1.6,0.3-2.1,0.9c-0.9,0.9-1,2.3-1,3.6c0,1.3,0.1,2.8,1,3.6c0.6,0.6,1.3,0.9,2.1,0.9 c0.8,0,1.6-0.3,2.2-0.9c0.9-0.9,0.9-2.3,0.9-3.6C183.7,179.4,183.6,177.9,182.8,177.1z"/> <path d="M195.7,177.1c-0.6-0.6-1.1-0.9-2-0.9c-1.7,0-2.8,1.4-2.8,3.2v7.2h-1.7v-11.8h1.7v1.4c0.6-1,1.9-1.6,3.3-1.6 c1.1,0,2,0.3,2.8,1.1L195.7,177.1z"/> <path d="M215.5,186.6l-1.4-3.9h-7.5l-1.4,3.9h-1.9l6.3-17.1h1.5l6.3,17.1H215.5z M210.4,172.2l-3.2,9h6.4L210.4,172.2z"/> <path d="M227.3,186.6v-1.3c-0.8,1-2,1.5-3.3,1.5c-1.3,0-2.3-0.4-3-1.1c-0.8-0.8-1.2-1.9-1.2-3.3v-7.5h1.7v7.3 c0,2.1,1.1,3.1,2.9,3.1c1.8,0,3-1.1,3-3.1v-7.3h1.7v11.8H227.3z"/> <path d="M237.1,186.8c-2,0-3.6-0.5-4.8-1.7l1.2-1.2c0.9,1,2.2,1.4,3.7,1.4c1.9,0,3.1-0.7,3.1-2.1c0-1-0.6-1.6-2-1.7l-1.9-0.2 c-2.3-0.2-3.5-1.2-3.5-3.2c0-2.2,1.8-3.5,4.3-3.5c1.7,0,3.2,0.4,4.2,1.3l-1.1,1.1c-0.8-0.6-1.9-0.9-3.1-0.9 c-1.7,0-2.6,0.7-2.6,1.9c0,1,0.6,1.6,2.1,1.7l1.9,0.2c2.1,0.2,3.5,1,3.5,3.2C241.9,185.5,239.9,186.8,237.1,186.8z"/> <path d="M248.3,186.6c-2,0-3-1.4-3-3.2v-7.2h-1.5v-1.3h1.5v-3.7h1.7v3.7h2.5v1.3H247v7.2c0,1.1,0.5,1.7,1.6,1.7h0.9v1.5H248.3z"/> <path d="M259.6,177.1c-0.6-0.6-1.1-0.9-2-0.9c-1.7,0-2.8,1.4-2.8,3.2v7.2H253v-11.8h1.7v1.4c0.6-1,1.9-1.6,3.3-1.6 c1.1,0,2,0.3,2.8,1.1L259.6,177.1z"/> <path d="M269.5,186.6v-1.1c-1,1-1.8,1.3-3.4,1.3c-1.6,0-2.6-0.3-3.3-1.1c-0.6-0.6-0.9-1.5-0.9-2.4c0-2.1,1.4-3.4,4.1-3.4h3.6 v-1.1c0-1.7-0.9-2.6-3-2.6c-1.5,0-2.3,0.4-3,1.3l-1.2-1.1c1.1-1.4,2.3-1.8,4.2-1.8c3.2,0,4.7,1.4,4.7,3.9v8H269.5z M269.5,181.2 h-3.3c-1.8,0-2.6,0.7-2.6,2.1c0,1.4,0.8,2,2.7,2c1,0,1.9-0.1,2.6-0.8c0.4-0.4,0.6-1.1,0.6-2V181.2z"/> <path d="M278.4,186.6c-2.1,0-3-1.3-3-3.1v-13.9h1.7v13.9c0,1.2,0.4,1.7,1.6,1.7h0.9v1.5H278.4z"/> <path d="M283.5,171.6c-0.6,0-1.2-0.5-1.2-1.2c0-0.6,0.5-1.2,1.2-1.2c0.6,0,1.2,0.5,1.2,1.2C284.7,171,284.1,171.6,283.5,171.6z M282.6,186.6v-11.8h1.7v11.8H282.6z"/> <path d="M295.4,186.6v-1.1c-1,1-1.8,1.3-3.4,1.3c-1.6,0-2.6-0.3-3.3-1.1c-0.6-0.6-0.9-1.5-0.9-2.4c0-2.1,1.4-3.4,4.1-3.4h3.6 v-1.1c0-1.7-0.9-2.6-3-2.6c-1.5,0-2.3,0.4-3,1.3l-1.2-1.1c1.1-1.4,2.3-1.8,4.2-1.8c3.2,0,4.7,1.4,4.7,3.9v8H295.4z M295.4,181.2 h-3.3c-1.8,0-2.6,0.7-2.6,2.1c0,1.4,0.8,2,2.7,2c1,0,1.9-0.1,2.6-0.8c0.4-0.4,0.6-1.1,0.6-2V181.2z"/> </g> <g> <path d="M22.1,216.1l-1-2.7h-5.3l-1,2.7h-1.4L18,204h1.1l4.4,12.1H22.1z M18.5,205.9l-2.3,6.4h4.5L18.5,205.9z"/> <path d="M31.2,216.1V211c0-1.5-0.8-2.2-2.1-2.2c-1.3,0-2.1,0.8-2.1,2.2v5.2h-1.2v-8.4H27v0.9c0.6-0.7,1.4-1,2.3-1 c0.9,0,1.6,0.3,2.1,0.8c0.6,0.6,0.9,1.4,0.9,2.3v5.4H31.2z"/> <path d="M48,216.1l-1-2.7h-5.3l-1,2.7h-1.4l4.5-12.1H45l4.4,12.1H48z M44.4,205.9l-2.3,6.4h4.5L44.4,205.9z"/> <path d="M57,216.1v-0.9c-0.6,0.7-1.4,1-2.4,1c-0.9,0-1.6-0.3-2.2-0.8c-0.6-0.6-0.9-1.4-0.9-2.3v-5.3h1.2v5.2c0,1.5,0.8,2.2,2,2.2 c1.3,0,2.1-0.8,2.1-2.2v-5.2h1.2v8.4H57z"/> <path d="M64.5,216.2c-1.4,0-2.5-0.3-3.4-1.2l0.8-0.8c0.7,0.7,1.6,1,2.6,1c1.4,0,2.2-0.5,2.2-1.5c0-0.7-0.4-1.1-1.4-1.2l-1.4-0.1 c-1.6-0.1-2.5-0.9-2.5-2.2c0-1.5,1.3-2.4,3.1-2.4c1.2,0,2.3,0.3,3,0.9l-0.8,0.8c-0.6-0.5-1.4-0.7-2.2-0.7c-1.2,0-1.9,0.5-1.9,1.4 c0,0.7,0.4,1.1,1.5,1.2l1.3,0.1c1.5,0.1,2.5,0.7,2.5,2.3C67.9,215.3,66.5,216.2,64.5,216.2z"/> <path d="M73,216.1c-1.4,0-2.1-1-2.1-2.2v-5.1h-1.1v-0.9h1.1v-2.6h1.2v2.6h1.8v0.9h-1.8v5.1c0,0.8,0.4,1.2,1.1,1.2h0.6v1.1H73z"/> <path d="M81.6,209.3c-0.5-0.5-0.8-0.6-1.4-0.6c-1.2,0-2,1-2,2.2v5.1h-1.2v-8.4h1.2v1c0.5-0.7,1.4-1.1,2.3-1.1 c0.8,0,1.4,0.2,2,0.8L81.6,209.3z"/> <path d="M89.2,216.1v-0.8c-0.7,0.7-1.3,0.9-2.4,0.9c-1.2,0-1.8-0.2-2.4-0.8c-0.4-0.4-0.6-1-0.6-1.7c0-1.5,1-2.4,2.9-2.4h2.5v-0.8 c0-1.2-0.6-1.8-2.1-1.8c-1.1,0-1.6,0.3-2.1,1l-0.8-0.8c0.7-1,1.6-1.2,3-1.2c2.2,0,3.3,1,3.3,2.8v5.7H89.2z M89.2,212.2h-2.3 c-1.3,0-1.9,0.5-1.9,1.5c0,1,0.6,1.4,1.9,1.4c0.7,0,1.3-0.1,1.9-0.6c0.3-0.3,0.4-0.7,0.4-1.4V212.2z"/> <path d="M96.1,216.1c-1.5,0-2.1-1-2.1-2.2V204h1.2v9.8c0,0.8,0.3,1.2,1.1,1.2H97v1.1H96.1z"/> <path d="M100.2,205.4c-0.5,0-0.8-0.4-0.8-0.8s0.4-0.8,0.8-0.8s0.9,0.4,0.9,0.8S100.7,205.4,100.2,205.4z M99.6,216.1v-8.4h1.2 v8.4H99.6z"/> <path d="M109.2,216.1v-0.8c-0.7,0.7-1.3,0.9-2.4,0.9c-1.2,0-1.8-0.2-2.4-0.8c-0.4-0.4-0.6-1-0.6-1.7c0-1.5,1-2.4,2.9-2.4h2.5 v-0.8c0-1.2-0.6-1.8-2.1-1.8c-1.1,0-1.6,0.3-2.1,1l-0.8-0.8c0.7-1,1.6-1.2,3-1.2c2.2,0,3.3,1,3.3,2.8v5.7H109.2z M109.2,212.2 h-2.3c-1.3,0-1.9,0.5-1.9,1.5c0,1,0.6,1.4,1.9,1.4c0.7,0,1.3-0.1,1.9-0.6c0.3-0.3,0.4-0.7,0.4-1.4V212.2z"/> <path d="M119.4,216.1V211c0-1.5-0.8-2.2-2.1-2.2c-1.3,0-2.1,0.8-2.1,2.2v5.2H114v-8.4h1.2v0.9c0.6-0.7,1.4-1,2.3-1 c0.9,0,1.6,0.3,2.1,0.8c0.6,0.6,0.9,1.4,0.9,2.3v5.4H119.4z"/> <path d="M136.2,214.8c-0.8,0.9-1.9,1.4-3.2,1.4c-1.2,0-2.3-0.4-3.1-1.3c-1.1-1.1-1.1-2.3-1.1-4.9c0-2.6,0-3.8,1.1-4.9 c0.8-0.8,1.9-1.3,3.1-1.3c1.6,0,2.5,0.6,3.6,1.6l-0.9,0.9c-0.9-0.9-1.5-1.4-2.8-1.4c-0.8,0-1.6,0.3-2.1,0.9 c-0.8,0.8-0.9,1.6-0.9,4.1c0,2.5,0.1,3.4,0.9,4.1c0.5,0.5,1.3,0.9,2.1,0.9c0.9,0,1.7-0.4,2.3-1c0.5-0.6,0.7-1.3,0.7-2.2v-0.9H133 v-1.1h4.2v1.9C137.2,213.1,136.9,214,136.2,214.8z"/> <path d="M145.9,215.3c-0.6,0.6-1.4,1-2.4,1c-1,0-1.8-0.4-2.4-1c-0.8-0.9-1-2-1-3.3c0-1.3,0.2-2.5,1-3.3c0.6-0.6,1.4-1,2.4-1 c1,0,1.8,0.4,2.4,1c0.9,0.9,1,2,1,3.3C146.9,213.2,146.7,214.4,145.9,215.3z M145,209.3c-0.4-0.4-0.9-0.6-1.5-0.6 c-0.6,0-1.1,0.2-1.5,0.6c-0.6,0.6-0.7,1.6-0.7,2.6c0,0.9,0.1,2,0.7,2.6c0.4,0.4,0.9,0.6,1.5,0.6c0.6,0,1.1-0.2,1.5-0.6 c0.6-0.6,0.7-1.6,0.7-2.6C145.7,211,145.6,210,145,209.3z"/> <path d="M152.7,216.1h-1.1l-3.1-8.4h1.3l2.3,6.7l2.3-6.7h1.3L152.7,216.1z"/> <path d="M158.7,212.2c0,1.8,0.9,2.9,2.5,2.9c1,0,1.5-0.3,2.2-1l0.8,0.7c-0.8,0.9-1.6,1.3-3.1,1.3c-2.2,0-3.7-1.3-3.7-4.3 c0-2.7,1.3-4.3,3.4-4.3c2.2,0,3.4,1.6,3.4,4v0.6H158.7z M162.9,209.9c-0.3-0.8-1.1-1.3-2-1.3c-0.9,0-1.6,0.5-2,1.3 c-0.2,0.5-0.2,0.7-0.3,1.4h4.4C163.1,210.6,163.1,210.4,162.9,209.9z"/> <path d="M172.2,209.3c-0.5-0.5-0.8-0.6-1.4-0.6c-1.2,0-2,1-2,2.2v5.1h-1.2v-8.4h1.2v1c0.5-0.7,1.4-1.1,2.3-1.1 c0.8,0,1.4,0.2,2,0.8L172.2,209.3z"/> <path d="M180.6,216.1V211c0-1.5-0.8-2.2-2.1-2.2c-1.3,0-2.1,0.8-2.1,2.2v5.2h-1.2v-8.4h1.2v0.9c0.6-0.7,1.4-1,2.3-1 c0.9,0,1.6,0.3,2.1,0.8c0.6,0.6,0.9,1.4,0.9,2.3v5.4H180.6z"/> <path d="M196.1,216.1V211c0-1.5-0.8-2.2-2.1-2.2c-1.2,0-2.1,0.8-2.1,2.1v5.3h-1.2V211c0-1.5-0.8-2.2-2.1-2.2s-2.1,0.8-2.1,2.2 v5.2h-1.2v-8.4h1.2v0.9c0.6-0.7,1.4-1,2.4-1c1.2,0,2.1,0.5,2.6,1.4c0.6-0.9,1.6-1.4,2.8-1.4c0.9,0,1.6,0.3,2.2,0.8 c0.6,0.6,0.9,1.4,0.9,2.3v5.4H196.1z"/> <path d="M201.7,212.2c0,1.8,0.9,2.9,2.5,2.9c1,0,1.5-0.3,2.2-1l0.8,0.7c-0.9,0.9-1.6,1.3-3.1,1.3c-2.2,0-3.7-1.3-3.7-4.3 c0-2.7,1.3-4.3,3.4-4.3c2.2,0,3.4,1.6,3.4,4v0.6H201.7z M205.8,209.9c-0.3-0.8-1.1-1.3-2-1.3c-0.9,0-1.6,0.5-2,1.3 c-0.2,0.5-0.2,0.7-0.3,1.4h4.4C206.1,210.6,206,210.4,205.8,209.9z"/> <path d="M215.9,216.1V211c0-1.5-0.8-2.2-2.1-2.2c-1.3,0-2.1,0.8-2.1,2.2v5.2h-1.2v-8.4h1.2v0.9c0.6-0.7,1.4-1,2.3-1 c0.9,0,1.6,0.3,2.1,0.8c0.6,0.6,0.9,1.4,0.9,2.3v5.4H215.9z"/> <path d="M223,216.1c-1.4,0-2.1-1-2.1-2.2v-5.1h-1.1v-0.9h1.1v-2.6h1.2v2.6h1.8v0.9h-1.8v5.1c0,0.8,0.4,1.2,1.1,1.2h0.6v1.1H223z"/> <path d="M231.9,216.1V204h1.3v12.1H231.9z"/> <path d="M242.4,216.1V211c0-1.5-0.8-2.2-2.1-2.2s-2.1,0.8-2.1,2.2v5.2H237v-8.4h1.2v0.9c0.6-0.7,1.4-1,2.3-1 c0.9,0,1.6,0.3,2.1,0.8c0.6,0.6,0.9,1.4,0.9,2.3v5.4H242.4z"/> <path d="M247.8,205.4c-0.5,0-0.8-0.4-0.8-0.8s0.4-0.8,0.8-0.8s0.8,0.4,0.8,0.8S248.2,205.4,247.8,205.4z M247.2,216.1v-8.4h1.2 v8.4H247.2z"/> <path d="M254.4,216.1c-1.4,0-2.1-1-2.1-2.2v-5.1h-1.1v-0.9h1.1v-2.6h1.2v2.6h1.8v0.9h-1.8v5.1c0,0.8,0.4,1.2,1.1,1.2h0.6v1.1 H254.4z"/> <path d="M258.9,205.4c-0.5,0-0.8-0.4-0.8-0.8s0.4-0.8,0.8-0.8c0.5,0,0.9,0.4,0.9,0.8S259.3,205.4,258.9,205.4z M258.3,216.1v-8.4 h1.2v8.4H258.3z"/> <path d="M267.9,216.1v-0.8c-0.7,0.7-1.3,0.9-2.4,0.9c-1.2,0-1.8-0.2-2.4-0.8c-0.4-0.4-0.6-1-0.6-1.7c0-1.5,1-2.4,2.9-2.4h2.5 v-0.8c0-1.2-0.6-1.8-2.1-1.8c-1.1,0-1.6,0.3-2.1,1l-0.8-0.8c0.7-1,1.6-1.2,3-1.2c2.2,0,3.3,1,3.3,2.8v5.7H267.9z M267.9,212.2 h-2.3c-1.3,0-1.9,0.5-1.9,1.5c0,1,0.6,1.4,1.9,1.4c0.7,0,1.3-0.1,1.9-0.6c0.3-0.3,0.4-0.7,0.4-1.4V212.2z"/> <path d="M275,216.1c-1.4,0-2.1-1-2.1-2.2v-5.1h-1.1v-0.9h1.1v-2.6h1.2v2.6h1.8v0.9h-1.8v5.1c0,0.8,0.4,1.2,1.1,1.2h0.6v1.1H275z"/> <path d="M279.5,205.4c-0.5,0-0.8-0.4-0.8-0.8s0.4-0.8,0.8-0.8c0.5,0,0.8,0.4,0.8,0.8S280,205.4,279.5,205.4z M278.9,216.1v-8.4 h1.2v8.4H278.9z"/> <path d="M286.6,216.1h-1.1l-3.1-8.4h1.3l2.3,6.7l2.3-6.7h1.3L286.6,216.1z"/> <path d="M292.5,212.2c0,1.8,0.9,2.9,2.5,2.9c1,0,1.5-0.3,2.2-1l0.8,0.7c-0.8,0.9-1.6,1.3-3.1,1.3c-2.2,0-3.7-1.3-3.7-4.3 c0-2.7,1.3-4.3,3.4-4.3c2.2,0,3.4,1.6,3.4,4v0.6H292.5z M296.7,209.9c-0.3-0.8-1.1-1.3-2-1.3c-0.9,0-1.6,0.5-2,1.3 c-0.2,0.5-0.2,0.7-0.3,1.4h4.4C296.9,210.6,296.9,210.4,296.7,209.9z"/> </g> <rect x="11.3" y="197.5" width="290.2" height="0.5"/> <rect x="11.3" y="222.2" width="290.2" height="0.5"/> </g> <g> <polygon class="st0" points="297.6,122.7 264.8,137 264.8,96.8 297.6,82.5 "/> <polygon class="st1" points="232,122.7 264.8,137 264.8,96.8 232,82.5 "/> <polygon class="st2" points="297.6,82.5 264.8,96.8 232,82.5 264.8,68.1 "/> <polygon class="st0" points="264.8,68.1 232,82.5 232,42.3 264.8,27.9 "/> <polygon class="st1" points="199.3,68.1 232,82.5 232,42.3 199.3,27.9 "/> <polygon class="st1" points="264.8,27.9 232,42.3 199.3,27.9 232,13.6 "/> </g> </g> <script xmlns=""/></svg>